<?xml version="1.0" encoding="UTF-8" standalone="no"?>
<!DOCTYPE svg PUBLIC "-//W3C//DTD SVG 1.1//EN" "http://www.w3.org/Graphics/SVG/1.1/DTD/svg11.dtd">
<svg xmlns="http://www.w3.org/2000/svg" xmlns:xlink="http://www.w3.org/1999/xlink" version="1.1" width="744pt" height="1052.25pt" viewBox="0 0 744 1052.25">
<g enable-background="new">
<g>
<g id="Layer-1" data-name="P">
<path transform="matrix(1,0,0,-1,0,1052.25)" d="M 26.114 898.88 L 204.694 898.88 L 204.694 955.573 L 26.114 955.573 Z " fill="#ffffff" fill-rule="evenodd"/>
<path transform="matrix(1,0,0,-1,0,1052.25)" stroke-width=".75075" stroke-linecap="round" stroke-linejoin="round" fill="none" stroke="#000000" d="M 26.114 898.88 L 204.694 898.88 L 204.694 955.573 L 26.114 955.573 Z "/>
<clipPath id="cp0">
<path transform="matrix(1,0,0,-1,0,1052.25)" d="M .000011086 0 L 744 0 L 744 1052.25 L .000011086 1052.25 Z " fill-rule="evenodd"/>
</clipPath>
<g clip-path="url(#cp0)">
<text xml:space="preserve" transform="matrix(1 0 -0 1 0 1052.25)" font-size="18" font-family="Calibri"><tspan y="-932.53" x="35.675 44.675 51.443 57.473 67.229007 76.247 80.747 90.503 97.271 101.051 105.551 114.56901 123.56901 133.32501 139.35501 143.85501 149.12902 152.90901 161.171 169.451 179.207 188.22499 195.73099">Estudios identificados </tspan></text>
</g>
<clipPath id="cp1">
<path transform="matrix(1,0,0,-1,0,1052.25)" d="M .000011086 0 L 744 0 L 744 1052.25 L .000011086 1052.25 Z " fill-rule="evenodd"/>
</clipPath>
<g clip-path="url(#cp1)">
<text xml:space="preserve" transform="matrix(1 0 -0 1 0 1052.25)" font-size="18.025" font-family="Calibri"><tspan y="-910.92" x="36.8 45.77645 55.527978 59.277177 68.27165 80.25828 90.0098 105.042659 114.01911 125.24869">en PUBMED </tspan></text>
</g>
<clipPath id="cp2">
<path transform="matrix(1,0,0,-1,0,1052.25)" d="M .000011086 0 L 744 0 L 744 1052.25 L .000011086 1052.25 Z " fill-rule="evenodd"/>
</clipPath>
<g clip-path="url(#cp2)">
<text xml:space="preserve" transform="matrix(1 0 -0 1 0 1052.25)" font-size="18.025" font-family="Calibri"><tspan y="-910.92" x="129.33">(</tspan></text>
</g>
<clipPath id="cp3">
<path transform="matrix(1,0,0,-1,0,1052.25)" d="M .000011086 0 L 744 0 L 744 1052.25 L .000011086 1052.25 Z " fill-rule="evenodd"/>
</clipPath>
<g clip-path="url(#cp3)">
<text xml:space="preserve" transform="matrix(1 0 -0 1 0 1052.25)" font-size="18.025" font-family="Calibri"><tspan y="-910.92" x="134.8 144.55013">n </tspan></text>
</g>
<clipPath id="cp4">
<path transform="matrix(1,0,0,-1,0,1052.25)" d="M .000011086 0 L 744 0 L 744 1052.25 L .000011086 1052.25 Z " fill-rule="evenodd"/>
</clipPath>
<g clip-path="url(#cp4)">
<text xml:space="preserve" transform="matrix(1 0 -0 1 0 1052.25)" font-size="18.025" font-family="Calibri"><tspan y="-910.92" x="148.35 157.35005">= </tspan></text>
</g>
<clipPath id="cp5">
<path transform="matrix(1,0,0,-1,0,1052.25)" d="M .000011086 0 L 744 0 L 744 1052.25 L .000011086 1052.25 Z " fill-rule="evenodd"/>
</clipPath>
<g clip-path="url(#cp5)">
<text xml:space="preserve" transform="matrix(1 0 -0 1 0 1052.25)" font-size="18.025" font-family="Calibri"><tspan y="-910.92" x="161.38 170.40468 179.42935">170</tspan></text>
</g>
<clipPath id="cp6">
<path transform="matrix(1,0,0,-1,0,1052.25)" d="M .000011086 0 L 744 0 L 744 1052.25 L .000011086 1052.25 Z " fill-rule="evenodd"/>
</clipPath>
<g clip-path="url(#cp6)">
<text xml:space="preserve" transform="matrix(1 0 -0 1 0 1052.25)" font-size="18.025" font-family="Calibri"><tspan y="-910.92" x="188.78">)</tspan></text>
</g>
</g>
<g id="Layer-1" data-name="P">
<path transform="matrix(1,0,0,-1,0,1052.25)" d="M 129.47 719.89 L 365.03 719.89 L 365.03 786.504 L 129.47 786.504 Z " fill="#ffffff" fill-rule="evenodd"/>
<path transform="matrix(1,0,0,-1,0,1052.25)" stroke-width=".75075" stroke-linecap="round" stroke-linejoin="round" fill="none" stroke="#000000" d="M 129.47 719.89 L 365.03 719.89 L 365.03 786.504 L 129.47 786.504 Z "/>
<clipPath id="cp7">
<path transform="matrix(1,0,0,-1,0,1052.25)" d="M .000011086 0 L 744 0 L 744 1052.25 L .000011086 1052.25 Z " fill-rule="evenodd"/>
</clipPath>
<g clip-path="url(#cp7)">
<text xml:space="preserve" transform="matrix(1 0 -0 1 0 1052.25)" font-size="18.025" font-family="Calibri"><tspan y="-769.2" x="165.65 175.43758 184.41403 198.65378 208.38729 215.88568 219.63489 229.3684 239.10189 242.85109 252.58458 261.56105 265.32826 271.33058 280.307 289.31953 293.06874 300.5491 306.58747 312.5537 322.2872 329.02854">Remoci&#x00f3;n de registros </tspan></text>
</g>
<clipPath id="cp8">
<path transform="matrix(1,0,0,-1,0,1052.25)" d="M .000011086 0 L 744 0 L 744 1052.25 L .000011086 1052.25 Z " fill-rule="evenodd"/>
</clipPath>
<g clip-path="url(#cp8)">
<text xml:space="preserve" transform="matrix(1 0 -0 1 0 1052.25)" font-size="18" font-family="Calibri"><tspan y="-747.57" x="208.03 217.786 226.80399 236.55998 240.30399 244.78598 252.30998 260.58998 270.34599 280.10197">duplicados</tspan></text>
</g>
<clipPath id="cp9">
<path transform="matrix(1,0,0,-1,0,1052.25)" d="M .000011086 0 L 744 0 L 744 1052.25 L .000011086 1052.25 Z " fill-rule="evenodd"/>
</clipPath>
<g clip-path="url(#cp9)">
<text xml:space="preserve" transform="matrix(1 0 -0 1 0 1052.25)" font-size="18.025" font-family="Calibri"><tspan y="-725.97" x="181.13">(</tspan></text>
</g>
<clipPath id="cp10">
<path transform="matrix(1,0,0,-1,0,1052.25)" d="M .000011086 0 L 744 0 L 744 1052.25 L .000011086 1052.25 Z " fill-rule="evenodd"/>
</clipPath>
<g clip-path="url(#cp10)">
<text xml:space="preserve" transform="matrix(1 0 -0 1 0 1052.25)" font-size="18.025" font-family="Calibri"><tspan y="-725.97" x="186.58 196.35514">n </tspan></text>
</g>
<clipPath id="cp11">
<path transform="matrix(1,0,0,-1,0,1052.25)" d="M .000011086 0 L 744 0 L 744 1052.25 L .000011086 1052.25 Z " fill-rule="evenodd"/>
</clipPath>
<g clip-path="url(#cp11)">
<text xml:space="preserve" transform="matrix(1 0 -0 1 0 1052.25)" font-size="18.025" font-family="Calibri"><tspan y="-725.97" x="200.13 209.13005">= </tspan></text>
</g>
<clipPath id="cp12">
<path transform="matrix(1,0,0,-1,0,1052.25)" d="M .000011086 0 L 744 0 L 744 1052.25 L .000011086 1052.25 Z " fill-rule="evenodd"/>
</clipPath>
<g clip-path="url(#cp12)">
<text xml:space="preserve" transform="matrix(1 0 -0 1 0 1052.25)" font-size="18.025" font-family="Calibri"><tspan y="-725.97" x="213.18 222.17967 231.17935 240.17903">237 </tspan></text>
</g>
<clipPath id="cp13">
<path transform="matrix(1,0,0,-1,0,1052.25)" d="M .000011086 0 L 744 0 L 744 1052.25 L .000011086 1052.25 Z " fill-rule="evenodd"/>
</clipPath>
<g clip-path="url(#cp13)">
<text xml:space="preserve" transform="matrix(1 0 -0 1 0 1052.25)" font-size="18.025" font-family="Calibri"><tspan y="-725.97" x="244.65 250.65232 259.62876 268.64128 272.39048 279.87083 285.90919 291.87544 301.60893">registros</tspan></text>
</g>
<clipPath id="cp14">
<path transform="matrix(1,0,0,-1,0,1052.25)" d="M .000011086 0 L 744 0 L 744 1052.25 L .000011086 1052.25 Z " fill-rule="evenodd"/>
</clipPath>
<g clip-path="url(#cp14)">
<text xml:space="preserve" transform="matrix(1 0 -0 1 0 1052.25)" font-size="18.025" font-family="Calibri"><tspan y="-725.97" x="308.42">)</tspan></text>
</g>
</g>
<g id="Layer-1" data-name="P">
<path transform="matrix(1,0,0,-1,0,1052.25)" d="M 129.47 600.76 L 365.03 600.76 L 365.03 657.453 L 129.47 657.453 Z " fill="#ffffff" fill-rule="evenodd"/>
<path transform="matrix(1,0,0,-1,0,1052.25)" stroke-width=".75075" stroke-linecap="round" stroke-linejoin="round" fill="none" stroke="#000000" d="M 129.47 600.76 L 365.03 600.76 L 365.03 657.453 L 129.47 657.453 Z "/>
<clipPath id="cp15">
<path transform="matrix(1,0,0,-1,0,1052.25)" d="M .000011086 0 L 744 0 L 744 1052.25 L .000011086 1052.25 Z " fill-rule="evenodd"/>
</clipPath>
<g clip-path="url(#cp15)">
<text xml:space="preserve" transform="matrix(1 0 -0 1 0 1052.25)" font-size="18" font-family="Calibri"><tspan y="-634.2" x="134.9 143.88199 152.10799 160.35198 164.83397 173.83397 182.81597 190.32196 194.06597 203.80397 213.54196 217.28595 227.02394 235.98795 239.76795 245.79795 250.24394 256.27397 265.23799 269.72 278.72">Evaluaci&#x00f3;n de t&#x00ed;tulos</tspan></text>
</g>
<clipPath id="cp16">
<path transform="matrix(1,0,0,-1,0,1052.25)" d="M .000011086 0 L 744 0 L 744 1052.25 L .000011086 1052.25 Z " fill-rule="evenodd"/>
</clipPath>
<g clip-path="url(#cp16)">
<text xml:space="preserve" transform="matrix(1 0 -0 1 0 1052.25)" font-size="18" font-family="Calibri"><tspan y="-634.2" x="286.35">/</tspan></text>
</g>
<clipPath id="cp17">
<path transform="matrix(1,0,0,-1,0,1052.25)" d="M .000011086 0 L 744 0 L 744 1052.25 L .000011086 1052.25 Z " fill-rule="evenodd"/>
</clipPath>
<g clip-path="url(#cp17)">
<text xml:space="preserve" transform="matrix(1 0 -0 1 0 1052.25)" font-size="18" font-family="Calibri"><tspan y="-634.2" x="293.33 301.574 311.312 318.062 324.794 330.78804 339.03205 347.25807 353.28807">abstracts</tspan></text>
</g>
<clipPath id="cp18">
<path transform="matrix(1,0,0,-1,0,1052.25)" d="M .000011086 0 L 744 0 L 744 1052.25 L .000011086 1052.25 Z " fill-rule="evenodd"/>
</clipPath>
<g clip-path="url(#cp18)">
<text xml:space="preserve" transform="matrix(1 0 -0 1 0 1052.25)" font-size="18.025" font-family="Calibri"><tspan y="-612.6" x="215.05">(</tspan></text>
</g>
<clipPath id="cp19">
<path transform="matrix(1,0,0,-1,0,1052.25)" d="M .000011086 0 L 744 0 L 744 1052.25 L .000011086 1052.25 Z " fill-rule="evenodd"/>
</clipPath>
<g clip-path="url(#cp19)">
<text xml:space="preserve" transform="matrix(1 0 -0 1 0 1052.25)" font-size="18.025" font-family="Calibri"><tspan y="-612.6" x="220.5 230.27513">n </tspan></text>
</g>
<clipPath id="cp20">
<path transform="matrix(1,0,0,-1,0,1052.25)" d="M .000011086 0 L 744 0 L 744 1052.25 L .000011086 1052.25 Z " fill-rule="evenodd"/>
</clipPath>
<g clip-path="url(#cp20)">
<text xml:space="preserve" transform="matrix(1 0 -0 1 0 1052.25)" font-size="18.025" font-family="Calibri"><tspan y="-612.6" x="234.05 243.05005">= </tspan></text>
</g>
<clipPath id="cp21">
<path transform="matrix(1,0,0,-1,0,1052.25)" d="M .000011086 0 L 744 0 L 744 1052.25 L .000011086 1052.25 Z " fill-rule="evenodd"/>
</clipPath>
<g clip-path="url(#cp21)">
<text xml:space="preserve" transform="matrix(1 0 -0 1 0 1052.25)" font-size="18.025" font-family="Calibri"><tspan y="-612.6" x="247.1 256.09968 265.09934">237</tspan></text>
</g>
<clipPath id="cp22">
<path transform="matrix(1,0,0,-1,0,1052.25)" d="M .000011086 0 L 744 0 L 744 1052.25 L .000011086 1052.25 Z " fill-rule="evenodd"/>
</clipPath>
<g clip-path="url(#cp22)">
<text xml:space="preserve" transform="matrix(1 0 -0 1 0 1052.25)" font-size="18.025" font-family="Calibri"><tspan y="-612.6" x="274.5">)</tspan></text>
</g>
</g>
<g id="Layer-1" data-name="P">
<path transform="matrix(1,0,0,-1,0,1052.25)" stroke-width=".75075" stroke-linecap="round" stroke-linejoin="round" fill="none" stroke="#000000" d="M 247.25 719.89 L 247.25 657.45 "/>
</g>
<g id="Layer-1" data-name="P">
<path transform="matrix(1,0,0,-1,0,1052.25)" d="M 427.11 680.2 L 721.58999 680.2 L 721.58999 851.85 L 427.11 851.85 Z " fill="#ffffff" fill-rule="evenodd"/>
<path transform="matrix(1,0,0,-1,0,1052.25)" stroke-width=".75075" stroke-linecap="round" stroke-linejoin="round" fill="none" stroke="#000000" d="M 427.11 680.2 L 721.58999 680.2 L 721.58999 851.85 L 427.11 851.85 Z "/>
<clipPath id="cp23">
<path transform="matrix(1,0,0,-1,0,1052.25)" d="M .000011086 0 L 744 0 L 744 1052.25 L .000011086 1052.25 Z " fill-rule="evenodd"/>
</clipPath>
<g clip-path="url(#cp23)">
<text xml:space="preserve" transform="matrix(1 0 -0 1 0 1052.25)" font-size="18" font-family="Calibri"><tspan y="-827.85" x="445.73 454.73 462.25404 469.77806 474.26008 483.27809 487.7601 496.7781 506.5341 514.0401">Excluidos </tspan></text>
</g>
<clipPath id="cp24">
<path transform="matrix(1,0,0,-1,0,1052.25)" d="M .000011086 0 L 744 0 L 744 1052.25 L .000011086 1052.25 Z " fill-rule="evenodd"/>
</clipPath>
<g clip-path="url(#cp24)">
<text xml:space="preserve" transform="matrix(1 0 -0 1 0 1052.25)" font-size="18" font-family="Calibri"><tspan y="-827.85" x="517.78">(</tspan></text>
</g>
<clipPath id="cp25">
<path transform="matrix(1,0,0,-1,0,1052.25)" d="M .000011086 0 L 744 0 L 744 1052.25 L .000011086 1052.25 Z " fill-rule="evenodd"/>
</clipPath>
<g clip-path="url(#cp25)">
<text xml:space="preserve" transform="matrix(1 0 -0 1 0 1052.25)" font-size="18" font-family="Calibri"><tspan y="-827.85" x="523.25 533">n </tspan></text>
</g>
<clipPath id="cp26">
<path transform="matrix(1,0,0,-1,0,1052.25)" d="M .000011086 0 L 744 0 L 744 1052.25 L .000011086 1052.25 Z " fill-rule="evenodd"/>
</clipPath>
<g clip-path="url(#cp26)">
<text xml:space="preserve" transform="matrix(1 0 -0 1 0 1052.25)" font-size="18" font-family="Calibri"><tspan y="-827.85" x="536.78 545.80508">= </tspan></text>
</g>
<clipPath id="cp27">
<path transform="matrix(1,0,0,-1,0,1052.25)" d="M .000011086 0 L 744 0 L 744 1052.25 L .000011086 1052.25 Z " fill-rule="evenodd"/>
</clipPath>
<g clip-path="url(#cp27)">
<text xml:space="preserve" transform="matrix(1 0 -0 1 0 1052.25)" font-size="18" font-family="Calibri"><tspan y="-827.85" x="549.83 558.85507 567.88009">117</tspan></text>
</g>
<clipPath id="cp28">
<path transform="matrix(1,0,0,-1,0,1052.25)" d="M .000011086 0 L 744 0 L 744 1052.25 L .000011086 1052.25 Z " fill-rule="evenodd"/>
</clipPath>
<g clip-path="url(#cp28)">
<text xml:space="preserve" transform="matrix(1 0 -0 1 0 1052.25)" font-size="18" font-family="Calibri"><tspan y="-827.85" x="577.22 582.47">):</tspan></text>
</g>
<clipPath id="cp29">
<path transform="matrix(1,0,0,-1,0,1052.25)" d="M .000011086 0 L 744 0 L 744 1052.25 L .000011086 1052.25 Z " fill-rule="evenodd"/>
</clipPath>
<g clip-path="url(#cp29)">
<text xml:space="preserve" transform="matrix(1 0 -0 1 0 1052.25)" font-size="18.025" font-family="Wingdings"><tspan y="-805.6" x="445.73">&#xf0a7;</tspan></text>
</g>
<clipPath id="cp30">
<path transform="matrix(1,0,0,-1,0,1052.25)" d="M .000011086 0 L 744 0 L 744 1052.25 L .000011086 1052.25 Z " fill-rule="evenodd"/>
</clipPath>
<g clip-path="url(#cp30)">
<text xml:space="preserve" transform="matrix(1 0 -0 1 0 1052.25)" font-size="18.025" font-family="Wingdings"><tspan y="-805.6" x="453.97"> </tspan></text>
</g>
<clipPath id="cp31">
<path transform="matrix(1,0,0,-1,0,1052.25)" d="M .000011086 0 L 744 0 L 744 1052.25 L .000011086 1052.25 Z " fill-rule="evenodd"/>
</clipPath>
<g clip-path="url(#cp31)">
<text xml:space="preserve" transform="matrix(1 0 -0 1 0 1052.25)" font-size="18.025" font-family="Calibri"><tspan y="-805.6" x="463.75 474.24058 483.217 489.25538 498.2318 504.23414 507.98335 517.71688 526.6933 532.6956 536.4448 546.1783 552.9197">Veterinarios </tspan></text>
</g>
<clipPath id="cp32">
<path transform="matrix(1,0,0,-1,0,1052.25)" d="M .000011086 0 L 744 0 L 744 1052.25 L .000011086 1052.25 Z " fill-rule="evenodd"/>
</clipPath>
<g clip-path="url(#cp32)">
<text xml:space="preserve" transform="matrix(1 0 -0 1 0 1052.25)" font-size="18.025" font-family="Calibri"><tspan y="-805.6" x="557.5">(</tspan></text>
</g>
<clipPath id="cp33">
<path transform="matrix(1,0,0,-1,0,1052.25)" d="M .000011086 0 L 744 0 L 744 1052.25 L .000011086 1052.25 Z " fill-rule="evenodd"/>
</clipPath>
<g clip-path="url(#cp33)">
<text xml:space="preserve" transform="matrix(1 0 -0 1 0 1052.25)" font-size="18.025" font-family="Calibri"><tspan y="-805.6" x="562.95 572.72518">n </tspan></text>
</g>
<clipPath id="cp34">
<path transform="matrix(1,0,0,-1,0,1052.25)" d="M .000011086 0 L 744 0 L 744 1052.25 L .000011086 1052.25 Z " fill-rule="evenodd"/>
</clipPath>
<g clip-path="url(#cp34)">
<text xml:space="preserve" transform="matrix(1 0 -0 1 0 1052.25)" font-size="18.025" font-family="Calibri"><tspan y="-805.6" x="576.5 585.50009">= </tspan></text>
</g>
<clipPath id="cp35">
<path transform="matrix(1,0,0,-1,0,1052.25)" d="M .000011086 0 L 744 0 L 744 1052.25 L .000011086 1052.25 Z " fill-rule="evenodd"/>
</clipPath>
<g clip-path="url(#cp35)">
<text xml:space="preserve" transform="matrix(1 0 -0 1 0 1052.25)" font-size="18.025" font-family="Calibri"><tspan y="-805.6" x="589.55 598.5497">37</tspan></text>
</g>
<clipPath id="cp36">
<path transform="matrix(1,0,0,-1,0,1052.25)" d="M .000011086 0 L 744 0 L 744 1052.25 L .000011086 1052.25 Z " fill-rule="evenodd"/>
</clipPath>
<g clip-path="url(#cp36)">
<text xml:space="preserve" transform="matrix(1 0 -0 1 0 1052.25)" font-size="18.025" font-family="Calibri"><tspan y="-805.6" x="607.8">)</tspan></text>
</g>
<clipPath id="cp37">
<path transform="matrix(1,0,0,-1,0,1052.25)" d="M .000011086 0 L 744 0 L 744 1052.25 L .000011086 1052.25 Z " fill-rule="evenodd"/>
</clipPath>
<g clip-path="url(#cp37)">
<text xml:space="preserve" transform="matrix(1 0 -0 1 0 1052.25)" font-size="18.025" font-family="Wingdings"><tspan y="-783.13" x="445.73">&#xf0a7;</tspan></text>
</g>
<clipPath id="cp38">
<path transform="matrix(1,0,0,-1,0,1052.25)" d="M .000011086 0 L 744 0 L 744 1052.25 L .000011086 1052.25 Z " fill-rule="evenodd"/>
</clipPath>
<g clip-path="url(#cp38)">
<text xml:space="preserve" transform="matrix(1 0 -0 1 0 1052.25)" font-size="18.025" font-family="Wingdings"><tspan y="-783.13" x="453.97"> </tspan></text>
</g>
<clipPath id="cp39">
<path transform="matrix(1,0,0,-1,0,1052.25)" d="M .000011086 0 L 744 0 L 744 1052.25 L .000011086 1052.25 Z " fill-rule="evenodd"/>
</clipPath>
<g clip-path="url(#cp39)">
<text xml:space="preserve" transform="matrix(1 0 -0 1 0 1052.25)" font-size="18.025" font-family="Calibri"><tspan y="-783.13" x="463.75 474.97959 478.7288 486.20915 495.18559 504.21614 513.9496 517.6988 527.4323 537.1658 540.915 546.9173 555.89376 560.39999 569.3764 577.63186 585.88729 595.6208 601.6592 610.6356">Dise&#x00f1;o no relevante </tspan></text>
</g>
<clipPath id="cp40">
<path transform="matrix(1,0,0,-1,0,1052.25)" d="M .000011086 0 L 744 0 L 744 1052.25 L .000011086 1052.25 Z " fill-rule="evenodd"/>
</clipPath>
<g clip-path="url(#cp40)">
<text xml:space="preserve" transform="matrix(1 0 -0 1 0 1052.25)" font-size="18.025" font-family="Calibri"><tspan y="-783.13" x="614.73">(</tspan></text>
</g>
<clipPath id="cp41">
<path transform="matrix(1,0,0,-1,0,1052.25)" d="M .000011086 0 L 744 0 L 744 1052.25 L .000011086 1052.25 Z " fill-rule="evenodd"/>
</clipPath>
<g clip-path="url(#cp41)">
<text xml:space="preserve" transform="matrix(1 0 -0 1 0 1052.25)" font-size="18.025" font-family="Calibri"><tspan y="-783.13" x="620.17 629.9451">n </tspan></text>
</g>
<clipPath id="cp42">
<path transform="matrix(1,0,0,-1,0,1052.25)" d="M .000011086 0 L 744 0 L 744 1052.25 L .000011086 1052.25 Z " fill-rule="evenodd"/>
</clipPath>
<g clip-path="url(#cp42)">
<text xml:space="preserve" transform="matrix(1 0 -0 1 0 1052.25)" font-size="18.025" font-family="Calibri"><tspan y="-783.13" x="633.72 642.72006">= </tspan></text>
</g>
<clipPath id="cp43">
<path transform="matrix(1,0,0,-1,0,1052.25)" d="M .000011086 0 L 744 0 L 744 1052.25 L .000011086 1052.25 Z " fill-rule="evenodd"/>
</clipPath>
<g clip-path="url(#cp43)">
<text xml:space="preserve" transform="matrix(1 0 -0 1 0 1052.25)" font-size="18.025" font-family="Calibri"><tspan y="-783.13" x="646.78 655.7797">36</tspan></text>
</g>
<clipPath id="cp44">
<path transform="matrix(1,0,0,-1,0,1052.25)" d="M .000011086 0 L 744 0 L 744 1052.25 L .000011086 1052.25 Z " fill-rule="evenodd"/>
</clipPath>
<g clip-path="url(#cp44)">
<text xml:space="preserve" transform="matrix(1 0 -0 1 0 1052.25)" font-size="18.025" font-family="Calibri"><tspan y="-783.13" x="665.05">)</tspan></text>
</g>
<clipPath id="cp45">
<path transform="matrix(1,0,0,-1,0,1052.25)" d="M .000011086 0 L 744 0 L 744 1052.25 L .000011086 1052.25 Z " fill-rule="evenodd"/>
</clipPath>
<g clip-path="url(#cp45)">
<text xml:space="preserve" transform="matrix(1 0 -0 1 0 1052.25)" font-size="18" font-family="Wingdings"><tspan y="-760.63" x="445.73">&#xf0a7;</tspan></text>
</g>
<clipPath id="cp46">
<path transform="matrix(1,0,0,-1,0,1052.25)" d="M .000011086 0 L 744 0 L 744 1052.25 L .000011086 1052.25 Z " fill-rule="evenodd"/>
</clipPath>
<g clip-path="url(#cp46)">
<text xml:space="preserve" transform="matrix(1 0 -0 1 0 1052.25)" font-size="18" font-family="Wingdings"><tspan y="-760.63" x="453.97"> </tspan></text>
</g>
<clipPath id="cp47">
<path transform="matrix(1,0,0,-1,0,1052.25)" d="M .000011086 0 L 744 0 L 744 1052.25 L .000011086 1052.25 Z " fill-rule="evenodd"/>
</clipPath>
<g clip-path="url(#cp47)">
<text xml:space="preserve" transform="matrix(1 0 -0 1 0 1052.25)" font-size="18" font-family="Calibri"><tspan y="-760.63" x="463.75 473.524 482.48799 490.73197 494.47599 501.964 505.708 515.44607 524.44607 533.41006 540.9341">Revisiones </tspan></text>
</g>
<clipPath id="cp48">
<path transform="matrix(1,0,0,-1,0,1052.25)" d="M .000011086 0 L 744 0 L 744 1052.25 L .000011086 1052.25 Z " fill-rule="evenodd"/>
</clipPath>
<g clip-path="url(#cp48)">
<text xml:space="preserve" transform="matrix(1 0 -0 1 0 1052.25)" font-size="18" font-family="Calibri"><tspan y="-760.63" x="545">(</tspan></text>
</g>
<clipPath id="cp49">
<path transform="matrix(1,0,0,-1,0,1052.25)" d="M .000011086 0 L 744 0 L 744 1052.25 L .000011086 1052.25 Z " fill-rule="evenodd"/>
</clipPath>
<g clip-path="url(#cp49)">
<text xml:space="preserve" transform="matrix(1 0 -0 1 0 1052.25)" font-size="18" font-family="Calibri"><tspan y="-760.63" x="550.47 560.22">n </tspan></text>
</g>
<clipPath id="cp50">
<path transform="matrix(1,0,0,-1,0,1052.25)" d="M .000011086 0 L 744 0 L 744 1052.25 L .000011086 1052.25 Z " fill-rule="evenodd"/>
</clipPath>
<g clip-path="url(#cp50)">
<text xml:space="preserve" transform="matrix(1 0 -0 1 0 1052.25)" font-size="18" font-family="Calibri"><tspan y="-760.63" x="564 573.025">= </tspan></text>
</g>
<clipPath id="cp51">
<path transform="matrix(1,0,0,-1,0,1052.25)" d="M .000011086 0 L 744 0 L 744 1052.25 L .000011086 1052.25 Z " fill-rule="evenodd"/>
</clipPath>
<g clip-path="url(#cp51)">
<text xml:space="preserve" transform="matrix(1 0 -0 1 0 1052.25)" font-size="18" font-family="Calibri"><tspan y="-760.63" x="577.05 586.075">13</tspan></text>
</g>
<clipPath id="cp52">
<path transform="matrix(1,0,0,-1,0,1052.25)" d="M .000011086 0 L 744 0 L 744 1052.25 L .000011086 1052.25 Z " fill-rule="evenodd"/>
</clipPath>
<g clip-path="url(#cp52)">
<text xml:space="preserve" transform="matrix(1 0 -0 1 0 1052.25)" font-size="18" font-family="Calibri"><tspan y="-760.63" x="595.33">)</tspan></text>
</g>
<clipPath id="cp53">
<path transform="matrix(1,0,0,-1,0,1052.25)" d="M .000011086 0 L 744 0 L 744 1052.25 L .000011086 1052.25 Z " fill-rule="evenodd"/>
</clipPath>
<g clip-path="url(#cp53)">
<text xml:space="preserve" transform="matrix(1 0 -0 1 0 1052.25)" font-size="18" font-family="Wingdings"><tspan y="-738.15" x="445.73">&#xf0a7;</tspan></text>
</g>
<clipPath id="cp54">
<path transform="matrix(1,0,0,-1,0,1052.25)" d="M .000011086 0 L 744 0 L 744 1052.25 L .000011086 1052.25 Z " fill-rule="evenodd"/>
</clipPath>
<g clip-path="url(#cp54)">
<text xml:space="preserve" transform="matrix(1 0 -0 1 0 1052.25)" font-size="18" font-family="Wingdings"><tspan y="-738.15" x="453.97"> </tspan></text>
</g>
<clipPath id="cp55">
<path transform="matrix(1,0,0,-1,0,1052.25)" d="M .000011086 0 L 744 0 L 744 1052.25 L .000011086 1052.25 Z " fill-rule="evenodd"/>
</clipPath>
<g clip-path="url(#cp55)">
<text xml:space="preserve" transform="matrix(1 0 -0 1 0 1052.25)" font-size="18" font-family="Calibri"><tspan y="-738.15" x="463.75 474.982 483.94599 490.73197 499.69596 509.46998 513.214 522.196 529.702 538.666 542.446 552.184 561.184 565.666 571.66 580.62399 585.14199 594.10598 601.64797 610.62997 620.368 626.398 635.362">Desenlace no relevante </tspan></text>
</g>
<clipPath id="cp56">
<path transform="matrix(1,0,0,-1,0,1052.25)" d="M .000011086 0 L 744 0 L 744 1052.25 L .000011086 1052.25 Z " fill-rule="evenodd"/>
</clipPath>
<g clip-path="url(#cp56)">
<text xml:space="preserve" transform="matrix(1 0 -0 1 0 1052.25)" font-size="18" font-family="Calibri"><tspan y="-738.15" x="639.4">(</tspan></text>
</g>
<clipPath id="cp57">
<path transform="matrix(1,0,0,-1,0,1052.25)" d="M .000011086 0 L 744 0 L 744 1052.25 L .000011086 1052.25 Z " fill-rule="evenodd"/>
</clipPath>
<g clip-path="url(#cp57)">
<text xml:space="preserve" transform="matrix(1 0 -0 1 0 1052.25)" font-size="18" font-family="Calibri"><tspan y="-738.15" x="644.88 654.63">n </tspan></text>
</g>
<clipPath id="cp58">
<path transform="matrix(1,0,0,-1,0,1052.25)" d="M .000011086 0 L 744 0 L 744 1052.25 L .000011086 1052.25 Z " fill-rule="evenodd"/>
</clipPath>
<g clip-path="url(#cp58)">
<text xml:space="preserve" transform="matrix(1 0 -0 1 0 1052.25)" font-size="18" font-family="Calibri"><tspan y="-738.15" x="658.4 667.42507">= </tspan></text>
</g>
<clipPath id="cp59">
<path transform="matrix(1,0,0,-1,0,1052.25)" d="M .000011086 0 L 744 0 L 744 1052.25 L .000011086 1052.25 Z " fill-rule="evenodd"/>
</clipPath>
<g clip-path="url(#cp59)">
<text xml:space="preserve" transform="matrix(1 0 -0 1 0 1052.25)" font-size="18" font-family="Calibri"><tspan y="-738.15" x="671.45 680.45">17</tspan></text>
</g>
<clipPath id="cp60">
<path transform="matrix(1,0,0,-1,0,1052.25)" d="M .000011086 0 L 744 0 L 744 1052.25 L .000011086 1052.25 Z " fill-rule="evenodd"/>
</clipPath>
<g clip-path="url(#cp60)">
<text xml:space="preserve" transform="matrix(1 0 -0 1 0 1052.25)" font-size="18" font-family="Calibri"><tspan y="-738.15" x="689.72">)</tspan></text>
</g>
<clipPath id="cp61">
<path transform="matrix(1,0,0,-1,0,1052.25)" d="M .000011086 0 L 744 0 L 744 1052.25 L .000011086 1052.25 Z " fill-rule="evenodd"/>
</clipPath>
<g clip-path="url(#cp61)">
<text xml:space="preserve" transform="matrix(1 0 -0 1 0 1052.25)" font-size="18" font-family="Wingdings"><tspan y="-715.68" x="445.73">&#xf0a7;</tspan></text>
</g>
<clipPath id="cp62">
<path transform="matrix(1,0,0,-1,0,1052.25)" d="M .000011086 0 L 744 0 L 744 1052.25 L .000011086 1052.25 Z " fill-rule="evenodd"/>
</clipPath>
<g clip-path="url(#cp62)">
<text xml:space="preserve" transform="matrix(1 0 -0 1 0 1052.25)" font-size="18" font-family="Wingdings"><tspan y="-715.68" x="453.97"> </tspan></text>
</g>
<clipPath id="cp63">
<path transform="matrix(1,0,0,-1,0,1052.25)" d="M .000011086 0 L 744 0 L 744 1052.25 L .000011086 1052.25 Z " fill-rule="evenodd"/>
</clipPath>
<g clip-path="url(#cp63)">
<text xml:space="preserve" transform="matrix(1 0 -0 1 0 1052.25)" font-size="18" font-family="Calibri"><tspan y="-715.68" x="463.75 472.732 478.726 487.708 493.738 501.96403 516.23806 520.72006 529.684 538.72006 544.75009 554.4521 558.1961 567.93417 577.6722 581.4162 588.1482 596.3922 600.8742 609.8382 618.10018 626.3442 636.0822 642.11227 651.07626">Tratamiento no relevante </tspan></text>
</g>
<clipPath id="cp64">
<path transform="matrix(1,0,0,-1,0,1052.25)" d="M .000011086 0 L 744 0 L 744 1052.25 L .000011086 1052.25 Z " fill-rule="evenodd"/>
</clipPath>
<g clip-path="url(#cp64)">
<text xml:space="preserve" transform="matrix(1 0 -0 1 0 1052.25)" font-size="18" font-family="Calibri"><tspan y="-715.68" x="655.38">(</tspan></text>
</g>
<clipPath id="cp65">
<path transform="matrix(1,0,0,-1,0,1052.25)" d="M .000011086 0 L 744 0 L 744 1052.25 L .000011086 1052.25 Z " fill-rule="evenodd"/>
</clipPath>
<g clip-path="url(#cp65)">
<text xml:space="preserve" transform="matrix(1 0 -0 1 0 1052.25)" font-size="18" font-family="Calibri"><tspan y="-715.68" x="660.85 670.6">n </tspan></text>
</g>
<clipPath id="cp66">
<path transform="matrix(1,0,0,-1,0,1052.25)" d="M .000011086 0 L 744 0 L 744 1052.25 L .000011086 1052.25 Z " fill-rule="evenodd"/>
</clipPath>
<g clip-path="url(#cp66)">
<text xml:space="preserve" transform="matrix(1 0 -0 1 0 1052.25)" font-size="18" font-family="Calibri"><tspan y="-715.68" x="674.38 683.405">= </tspan></text>
</g>
<clipPath id="cp67">
<path transform="matrix(1,0,0,-1,0,1052.25)" d="M .000011086 0 L 744 0 L 744 1052.25 L .000011086 1052.25 Z " fill-rule="evenodd"/>
</clipPath>
<g clip-path="url(#cp67)">
<text xml:space="preserve" transform="matrix(1 0 -0 1 0 1052.25)" font-size="18" font-family="Calibri"><tspan y="-715.68" x="687.42 696.42">11</tspan></text>
</g>
<clipPath id="cp68">
<path transform="matrix(1,0,0,-1,0,1052.25)" d="M .000011086 0 L 744 0 L 744 1052.25 L .000011086 1052.25 Z " fill-rule="evenodd"/>
</clipPath>
<g clip-path="url(#cp68)">
<text xml:space="preserve" transform="matrix(1 0 -0 1 0 1052.25)" font-size="18" font-family="Calibri"><tspan y="-715.68" x="705.7">)</tspan></text>
</g>
<clipPath id="cp69">
<path transform="matrix(1,0,0,-1,0,1052.25)" d="M .000011086 0 L 744 0 L 744 1052.25 L .000011086 1052.25 Z " fill-rule="evenodd"/>
</clipPath>
<g clip-path="url(#cp69)">
<text xml:space="preserve" transform="matrix(1 0 -0 1 0 1052.25)" font-size="18" font-family="Wingdings"><tspan y="-693.2" x="445.73">&#xf0a7;</tspan></text>
</g>
<clipPath id="cp70">
<path transform="matrix(1,0,0,-1,0,1052.25)" d="M .000011086 0 L 744 0 L 744 1052.25 L .000011086 1052.25 Z " fill-rule="evenodd"/>
</clipPath>
<g clip-path="url(#cp70)">
<text xml:space="preserve" transform="matrix(1 0 -0 1 0 1052.25)" font-size="18" font-family="Wingdings"><tspan y="-693.2" x="453.97"> </tspan></text>
</g>
<clipPath id="cp71">
<path transform="matrix(1,0,0,-1,0,1052.25)" d="M .000011086 0 L 744 0 L 744 1052.25 L .000011086 1052.25 Z " fill-rule="evenodd"/>
</clipPath>
<g clip-path="url(#cp71)">
<text xml:space="preserve" transform="matrix(1 0 -0 1 0 1052.25)" font-size="18" font-family="Calibri"><tspan y="-693.2" x="463.75 471.256 480.22 489.99403 498.238 507.976 516.22006 520.702 529.666 533.446 542.41 549.95199 556.684 562.678 570.922 580.66006 585.142 594.106 600.136 609.874">Lenguaje extranjero </tspan></text>
</g>
<clipPath id="cp72">
<path transform="matrix(1,0,0,-1,0,1052.25)" d="M .000011086 0 L 744 0 L 744 1052.25 L .000011086 1052.25 Z " fill-rule="evenodd"/>
</clipPath>
<g clip-path="url(#cp72)">
<text xml:space="preserve" transform="matrix(1 0 -0 1 0 1052.25)" font-size="18" font-family="Calibri"><tspan y="-693.2" x="614">(</tspan></text>
</g>
<clipPath id="cp73">
<path transform="matrix(1,0,0,-1,0,1052.25)" d="M .000011086 0 L 744 0 L 744 1052.25 L .000011086 1052.25 Z " fill-rule="evenodd"/>
</clipPath>
<g clip-path="url(#cp73)">
<text xml:space="preserve" transform="matrix(1 0 -0 1 0 1052.25)" font-size="18" font-family="Calibri"><tspan y="-693.2" x="619.48 629.23">n </tspan></text>
</g>
<clipPath id="cp74">
<path transform="matrix(1,0,0,-1,0,1052.25)" d="M .000011086 0 L 744 0 L 744 1052.25 L .000011086 1052.25 Z " fill-rule="evenodd"/>
</clipPath>
<g clip-path="url(#cp74)">
<text xml:space="preserve" transform="matrix(1 0 -0 1 0 1052.25)" font-size="18" font-family="Calibri"><tspan y="-693.2" x="633 642.025">= </tspan></text>
</g>
<clipPath id="cp75">
<path transform="matrix(1,0,0,-1,0,1052.25)" d="M .000011086 0 L 744 0 L 744 1052.25 L .000011086 1052.25 Z " fill-rule="evenodd"/>
</clipPath>
<g clip-path="url(#cp75)">
<text xml:space="preserve" transform="matrix(1 0 -0 1 0 1052.25)" font-size="18" font-family="Calibri"><tspan y="-693.2" x="646.05">3</tspan></text>
</g>
<clipPath id="cp76">
<path transform="matrix(1,0,0,-1,0,1052.25)" d="M .000011086 0 L 744 0 L 744 1052.25 L .000011086 1052.25 Z " fill-rule="evenodd"/>
</clipPath>
<g clip-path="url(#cp76)">
<text xml:space="preserve" transform="matrix(1 0 -0 1 0 1052.25)" font-size="18" font-family="Calibri"><tspan y="-693.2" x="655.18">)</tspan></text>
</g>
</g>
<g id="Layer-1" data-name="P">
<path transform="matrix(1,0,0,-1,0,1052.25)" stroke-width=".75075" stroke-linecap="round" stroke-linejoin="round" fill="none" stroke="#000000" d="M 365.03 629.1 L 375.66 629.1 L 375.66 766.03 L 427.11 766.03 "/>
</g>
<g id="Layer-1" data-name="P">
<path transform="matrix(1,0,0,-1,0,1052.25)" d="M 129.47 485.47 L 365.03 485.47 L 365.03 552.084 L 129.47 552.084 Z " fill="#ffffff" fill-rule="evenodd"/>
<path transform="matrix(1,0,0,-1,0,1052.25)" stroke-width=".75075" stroke-linecap="round" stroke-linejoin="round" fill="none" stroke="#000000" d="M 129.47 485.47 L 365.03 485.47 L 365.03 552.084 L 129.47 552.084 Z "/>
<clipPath id="cp77">
<path transform="matrix(1,0,0,-1,0,1052.25)" d="M .000011086 0 L 744 0 L 744 1052.25 L .000011086 1052.25 Z " fill-rule="evenodd"/>
</clipPath>
<g clip-path="url(#cp77)">
<text xml:space="preserve" transform="matrix(1 0 -0 1 0 1052.25)" font-size="18" font-family="Calibri"><tspan y="-534.6" x="163.7 172.68199 179.43199 185.46199 195.16399 204.16399 208.64598 218.38399 225.13399 228.87798 233.35997 242.35997 250.58597 254.32997 264.06797 267.81199 277.55 286.55 294.038 297.78199 307.52 315.764 322.49604 330.74006">Estudios incluidos para </tspan></text>
</g>
<clipPath id="cp78">
<path transform="matrix(1,0,0,-1,0,1052.25)" d="M .000011086 0 L 744 0 L 744 1052.25 L .000011086 1052.25 Z " fill-rule="evenodd"/>
</clipPath>
<g clip-path="url(#cp78)">
<text xml:space="preserve" transform="matrix(1 0 -0 1 0 1052.25)" font-size="18.025" font-family="Calibri"><tspan y="-513" x="138.85 147.82646 156.08191 164.33736 168.82558 177.82006 186.7965 194.29489 198.78311 207.77759 217.51108 221.26029 230.99378 239.97023 243.73746 249.77584 258.7523 266.9717 273.01008 281.9685 286.45674 293.9551 303.6886 317.9644 326.95887 331.44709 340.42353 346.46189 355.43833">evaluaci&#x00f3;n de texto completo </tspan></text>
</g>
<clipPath id="cp79">
<path transform="matrix(1,0,0,-1,0,1052.25)" d="M .000011086 0 L 744 0 L 744 1052.25 L .000011086 1052.25 Z " fill-rule="evenodd"/>
</clipPath>
<g clip-path="url(#cp79)">
<text xml:space="preserve" transform="matrix(1 0 -0 1 0 1052.25)" font-size="18" font-family="Calibri"><tspan y="-491.38" x="215.05">(</tspan></text>
</g>
<clipPath id="cp80">
<path transform="matrix(1,0,0,-1,0,1052.25)" d="M .000011086 0 L 744 0 L 744 1052.25 L .000011086 1052.25 Z " fill-rule="evenodd"/>
</clipPath>
<g clip-path="url(#cp80)">
<text xml:space="preserve" transform="matrix(1 0 -0 1 0 1052.25)" font-size="18" font-family="Calibri"><tspan y="-491.38" x="220.5 230.275">n </tspan></text>
</g>
<clipPath id="cp81">
<path transform="matrix(1,0,0,-1,0,1052.25)" d="M .000011086 0 L 744 0 L 744 1052.25 L .000011086 1052.25 Z " fill-rule="evenodd"/>
</clipPath>
<g clip-path="url(#cp81)">
<text xml:space="preserve" transform="matrix(1 0 -0 1 0 1052.25)" font-size="18" font-family="Calibri"><tspan y="-491.38" x="234.05 243.05">= </tspan></text>
</g>
<clipPath id="cp82">
<path transform="matrix(1,0,0,-1,0,1052.25)" d="M .000011086 0 L 744 0 L 744 1052.25 L .000011086 1052.25 Z " fill-rule="evenodd"/>
</clipPath>
<g clip-path="url(#cp82)">
<text xml:space="preserve" transform="matrix(1 0 -0 1 0 1052.25)" font-size="18" font-family="Calibri"><tspan y="-491.38" x="247.1 256.1 265.1">120</tspan></text>
</g>
<clipPath id="cp83">
<path transform="matrix(1,0,0,-1,0,1052.25)" d="M .000011086 0 L 744 0 L 744 1052.25 L .000011086 1052.25 Z " fill-rule="evenodd"/>
</clipPath>
<g clip-path="url(#cp83)">
<text xml:space="preserve" transform="matrix(1 0 -0 1 0 1052.25)" font-size="18" font-family="Calibri"><tspan y="-491.38" x="274.5">)</tspan></text>
</g>
</g>
<g id="Layer-1" data-name="P">
<path transform="matrix(1,0,0,-1,0,1052.25)" stroke-width=".75075" stroke-linecap="round" stroke-linejoin="round" fill="none" stroke="#000000" d="M 247.25 600.76 L 247.25 552.08 "/>
</g>
<g id="Layer-1" data-name="P">
<path transform="matrix(1,0,0,-1,0,1052.25)" d="M 427.11 461.53 L 721.58999 461.53 L 721.58999 633.18 L 427.11 633.18 Z " fill="#ffffff" fill-rule="evenodd"/>
<path transform="matrix(1,0,0,-1,0,1052.25)" stroke-width=".75075" stroke-linecap="round" stroke-linejoin="round" fill="none" stroke="#000000" d="M 427.11 461.53 L 721.58999 461.53 L 721.58999 633.18 L 427.11 633.18 Z "/>
<clipPath id="cp84">
<path transform="matrix(1,0,0,-1,0,1052.25)" d="M .000011086 0 L 744 0 L 744 1052.25 L .000011086 1052.25 Z " fill-rule="evenodd"/>
</clipPath>
<g clip-path="url(#cp84)">
<text xml:space="preserve" transform="matrix(1 0 -0 1 0 1052.25)" font-size="18" font-family="Calibri"><tspan y="-609.03" x="445.73 454.73 462.25404 469.77806 474.26008 483.27809 487.7601 496.7781 506.5341 514.0401">Excluidos </tspan></text>
</g>
<clipPath id="cp85">
<path transform="matrix(1,0,0,-1,0,1052.25)" d="M .000011086 0 L 744 0 L 744 1052.25 L .000011086 1052.25 Z " fill-rule="evenodd"/>
</clipPath>
<g clip-path="url(#cp85)">
<text xml:space="preserve" transform="matrix(1 0 -0 1 0 1052.25)" font-size="18" font-family="Calibri"><tspan y="-609.03" x="517.78">(</tspan></text>
</g>
<clipPath id="cp86">
<path transform="matrix(1,0,0,-1,0,1052.25)" d="M .000011086 0 L 744 0 L 744 1052.25 L .000011086 1052.25 Z " fill-rule="evenodd"/>
</clipPath>
<g clip-path="url(#cp86)">
<text xml:space="preserve" transform="matrix(1 0 -0 1 0 1052.25)" font-size="18" font-family="Calibri"><tspan y="-609.03" x="523.25 533">n </tspan></text>
</g>
<clipPath id="cp87">
<path transform="matrix(1,0,0,-1,0,1052.25)" d="M .000011086 0 L 744 0 L 744 1052.25 L .000011086 1052.25 Z " fill-rule="evenodd"/>
</clipPath>
<g clip-path="url(#cp87)">
<text xml:space="preserve" transform="matrix(1 0 -0 1 0 1052.25)" font-size="18" font-family="Calibri"><tspan y="-609.03" x="536.78 545.80508">= </tspan></text>
</g>
<clipPath id="cp88">
<path transform="matrix(1,0,0,-1,0,1052.25)" d="M .000011086 0 L 744 0 L 744 1052.25 L .000011086 1052.25 Z " fill-rule="evenodd"/>
</clipPath>
<g clip-path="url(#cp88)">
<text xml:space="preserve" transform="matrix(1 0 -0 1 0 1052.25)" font-size="18" font-family="Calibri"><tspan y="-609.03" x="549.83 558.85507">24</tspan></text>
</g>
<clipPath id="cp89">
<path transform="matrix(1,0,0,-1,0,1052.25)" d="M .000011086 0 L 744 0 L 744 1052.25 L .000011086 1052.25 Z " fill-rule="evenodd"/>
</clipPath>
<g clip-path="url(#cp89)">
<text xml:space="preserve" transform="matrix(1 0 -0 1 0 1052.25)" font-size="18" font-family="Calibri"><tspan y="-609.03" x="568.1 573.35">):</tspan></text>
</g>
<clipPath id="cp90">
<path transform="matrix(1,0,0,-1,0,1052.25)" d="M .000011086 0 L 744 0 L 744 1052.25 L .000011086 1052.25 Z " fill-rule="evenodd"/>
</clipPath>
<g clip-path="url(#cp90)">
<text xml:space="preserve" transform="matrix(1 0 -0 1 0 1052.25)" font-size="18.025" font-family="Wingdings"><tspan y="-586.78" x="445.73">&#xf0a7;</tspan></text>
</g>
<clipPath id="cp91">
<path transform="matrix(1,0,0,-1,0,1052.25)" d="M .000011086 0 L 744 0 L 744 1052.25 L .000011086 1052.25 Z " fill-rule="evenodd"/>
</clipPath>
<g clip-path="url(#cp91)">
<text xml:space="preserve" transform="matrix(1 0 -0 1 0 1052.25)" font-size="18.025" font-family="Wingdings"><tspan y="-586.78" x="453.97"> </tspan></text>
</g>
<clipPath id="cp92">
<path transform="matrix(1,0,0,-1,0,1052.25)" d="M .000011086 0 L 744 0 L 744 1052.25 L .000011086 1052.25 Z " fill-rule="evenodd"/>
</clipPath>
<g clip-path="url(#cp92)">
<text xml:space="preserve" transform="matrix(1 0 -0 1 0 1052.25)" font-size="18.025" font-family="Calibri"><tspan y="-586.78" x="463.75 472.02348 481.73896 485.48817 495.22166 498.97084 507.94728 516.9418 524.4222 530.4606 536.4268 545.40328 552.9017 558.94009">S&#x00f3;lo abstract </tspan></text>
</g>
<clipPath id="cp93">
<path transform="matrix(1,0,0,-1,0,1052.25)" d="M .000011086 0 L 744 0 L 744 1052.25 L .000011086 1052.25 Z " fill-rule="evenodd"/>
</clipPath>
<g clip-path="url(#cp93)">
<text xml:space="preserve" transform="matrix(1 0 -0 1 0 1052.25)" font-size="18.025" font-family="Calibri"><tspan y="-586.78" x="563.05">(</tspan></text>
</g>
<clipPath id="cp94">
<path transform="matrix(1,0,0,-1,0,1052.25)" d="M .000011086 0 L 744 0 L 744 1052.25 L .000011086 1052.25 Z " fill-rule="evenodd"/>
</clipPath>
<g clip-path="url(#cp94)">
<text xml:space="preserve" transform="matrix(1 0 -0 1 0 1052.25)" font-size="18.025" font-family="Calibri"><tspan y="-586.78" x="568.53 578.28018">n </tspan></text>
</g>
<clipPath id="cp95">
<path transform="matrix(1,0,0,-1,0,1052.25)" d="M .000011086 0 L 744 0 L 744 1052.25 L .000011086 1052.25 Z " fill-rule="evenodd"/>
</clipPath>
<g clip-path="url(#cp95)">
<text xml:space="preserve" transform="matrix(1 0 -0 1 0 1052.25)" font-size="18.025" font-family="Calibri"><tspan y="-586.78" x="582.08 591.0801">= </tspan></text>
</g>
<clipPath id="cp96">
<path transform="matrix(1,0,0,-1,0,1052.25)" d="M .000011086 0 L 744 0 L 744 1052.25 L .000011086 1052.25 Z " fill-rule="evenodd"/>
</clipPath>
<g clip-path="url(#cp96)">
<text xml:space="preserve" transform="matrix(1 0 -0 1 0 1052.25)" font-size="18.025" font-family="Calibri"><tspan y="-586.78" x="595.13">7</tspan></text>
</g>
<clipPath id="cp97">
<path transform="matrix(1,0,0,-1,0,1052.25)" d="M .000011086 0 L 744 0 L 744 1052.25 L .000011086 1052.25 Z " fill-rule="evenodd"/>
</clipPath>
<g clip-path="url(#cp97)">
<text xml:space="preserve" transform="matrix(1 0 -0 1 0 1052.25)" font-size="18.025" font-family="Calibri"><tspan y="-586.78" x="604.25">)</tspan></text>
</g>
<clipPath id="cp98">
<path transform="matrix(1,0,0,-1,0,1052.25)" d="M .000011086 0 L 744 0 L 744 1052.25 L .000011086 1052.25 Z " fill-rule="evenodd"/>
</clipPath>
<g clip-path="url(#cp98)">
<text xml:space="preserve" transform="matrix(1 0 -0 1 0 1052.25)" font-size="18" font-family="Wingdings"><tspan y="-564.28" x="445.73">&#xf0a7;</tspan></text>
</g>
<clipPath id="cp99">
<path transform="matrix(1,0,0,-1,0,1052.25)" d="M .000011086 0 L 744 0 L 744 1052.25 L .000011086 1052.25 Z " fill-rule="evenodd"/>
</clipPath>
<g clip-path="url(#cp99)">
<text xml:space="preserve" transform="matrix(1 0 -0 1 0 1052.25)" font-size="18" font-family="Wingdings"><tspan y="-564.28" x="453.97"> </tspan></text>
</g>
<clipPath id="cp100">
<path transform="matrix(1,0,0,-1,0,1052.25)" d="M .000011086 0 L 744 0 L 744 1052.25 L .000011086 1052.25 Z " fill-rule="evenodd"/>
</clipPath>
<g clip-path="url(#cp100)">
<text xml:space="preserve" transform="matrix(1 0 -0 1 0 1052.25)" font-size="18" font-family="Calibri"><tspan y="-564.28" x="463.75 474.982 483.982 493.72 497.46403 501.94606 509.45207 518.434 527.434 537.17208 543.92208">Duplicados </tspan></text>
</g>
<clipPath id="cp101">
<path transform="matrix(1,0,0,-1,0,1052.25)" d="M .000011086 0 L 744 0 L 744 1052.25 L .000011086 1052.25 Z " fill-rule="evenodd"/>
</clipPath>
<g clip-path="url(#cp101)">
<text xml:space="preserve" transform="matrix(1 0 -0 1 0 1052.25)" font-size="18" font-family="Calibri"><tspan y="-564.28" x="548.38">(</tspan></text>
</g>
<clipPath id="cp102">
<path transform="matrix(1,0,0,-1,0,1052.25)" d="M .000011086 0 L 744 0 L 744 1052.25 L .000011086 1052.25 Z " fill-rule="evenodd"/>
</clipPath>
<g clip-path="url(#cp102)">
<text xml:space="preserve" transform="matrix(1 0 -0 1 0 1052.25)" font-size="18" font-family="Calibri"><tspan y="-564.28" x="553.85 563.6">n </tspan></text>
</g>
<clipPath id="cp103">
<path transform="matrix(1,0,0,-1,0,1052.25)" d="M .000011086 0 L 744 0 L 744 1052.25 L .000011086 1052.25 Z " fill-rule="evenodd"/>
</clipPath>
<g clip-path="url(#cp103)">
<text xml:space="preserve" transform="matrix(1 0 -0 1 0 1052.25)" font-size="18" font-family="Calibri"><tspan y="-564.28" x="567.38 576.405">= </tspan></text>
</g>
<clipPath id="cp104">
<path transform="matrix(1,0,0,-1,0,1052.25)" d="M .000011086 0 L 744 0 L 744 1052.25 L .000011086 1052.25 Z " fill-rule="evenodd"/>
</clipPath>
<g clip-path="url(#cp104)">
<text xml:space="preserve" transform="matrix(1 0 -0 1 0 1052.25)" font-size="18" font-family="Calibri"><tspan y="-564.28" x="580.43">4</tspan></text>
</g>
<clipPath id="cp105">
<path transform="matrix(1,0,0,-1,0,1052.25)" d="M .000011086 0 L 744 0 L 744 1052.25 L .000011086 1052.25 Z " fill-rule="evenodd"/>
</clipPath>
<g clip-path="url(#cp105)">
<text xml:space="preserve" transform="matrix(1 0 -0 1 0 1052.25)" font-size="18" font-family="Calibri"><tspan y="-564.28" x="589.55">)</tspan></text>
</g>
<clipPath id="cp106">
<path transform="matrix(1,0,0,-1,0,1052.25)" d="M .000011086 0 L 744 0 L 744 1052.25 L .000011086 1052.25 Z " fill-rule="evenodd"/>
</clipPath>
<g clip-path="url(#cp106)">
<text xml:space="preserve" transform="matrix(1 0 -0 1 0 1052.25)" font-size="18" font-family="Wingdings"><tspan y="-541.8" x="445.73">&#xf0a7;</tspan></text>
</g>
<clipPath id="cp107">
<path transform="matrix(1,0,0,-1,0,1052.25)" d="M .000011086 0 L 744 0 L 744 1052.25 L .000011086 1052.25 Z " fill-rule="evenodd"/>
</clipPath>
<g clip-path="url(#cp107)">
<text xml:space="preserve" transform="matrix(1 0 -0 1 0 1052.25)" font-size="18" font-family="Wingdings"><tspan y="-541.8" x="453.97"> </tspan></text>
</g>
<clipPath id="cp108">
<path transform="matrix(1,0,0,-1,0,1052.25)" d="M .000011086 0 L 744 0 L 744 1052.25 L .000011086 1052.25 Z " fill-rule="evenodd"/>
</clipPath>
<g clip-path="url(#cp108)">
<text xml:space="preserve" transform="matrix(1 0 -0 1 0 1052.25)" font-size="18" font-family="Calibri"><tspan y="-541.8" x="463.75 472.732 478.726 487.708 493.738 501.96403 516.23806 520.72006 529.684 538.72006 544.75009 554.4521 558.1961 567.93417 577.6722 581.4162 588.1482 596.3922 600.8742 609.8382 618.10018 626.3442 636.0822 642.11227 651.07626">Tratamiento no relevante </tspan></text>
</g>
<clipPath id="cp109">
<path transform="matrix(1,0,0,-1,0,1052.25)" d="M .000011086 0 L 744 0 L 744 1052.25 L .000011086 1052.25 Z " fill-rule="evenodd"/>
</clipPath>
<g clip-path="url(#cp109)">
<text xml:space="preserve" transform="matrix(1 0 -0 1 0 1052.25)" font-size="18" font-family="Calibri"><tspan y="-541.8" x="655.38">(</tspan></text>
</g>
<clipPath id="cp110">
<path transform="matrix(1,0,0,-1,0,1052.25)" d="M .000011086 0 L 744 0 L 744 1052.25 L .000011086 1052.25 Z " fill-rule="evenodd"/>
</clipPath>
<g clip-path="url(#cp110)">
<text xml:space="preserve" transform="matrix(1 0 -0 1 0 1052.25)" font-size="18" font-family="Calibri"><tspan y="-541.8" x="660.85 670.6">n </tspan></text>
</g>
<clipPath id="cp111">
<path transform="matrix(1,0,0,-1,0,1052.25)" d="M .000011086 0 L 744 0 L 744 1052.25 L .000011086 1052.25 Z " fill-rule="evenodd"/>
</clipPath>
<g clip-path="url(#cp111)">
<text xml:space="preserve" transform="matrix(1 0 -0 1 0 1052.25)" font-size="18" font-family="Calibri"><tspan y="-541.8" x="674.38 683.405">= </tspan></text>
</g>
<clipPath id="cp112">
<path transform="matrix(1,0,0,-1,0,1052.25)" d="M .000011086 0 L 744 0 L 744 1052.25 L .000011086 1052.25 Z " fill-rule="evenodd"/>
</clipPath>
<g clip-path="url(#cp112)">
<text xml:space="preserve" transform="matrix(1 0 -0 1 0 1052.25)" font-size="18" font-family="Calibri"><tspan y="-541.8" x="687.42">1</tspan></text>
</g>
<clipPath id="cp113">
<path transform="matrix(1,0,0,-1,0,1052.25)" d="M .000011086 0 L 744 0 L 744 1052.25 L .000011086 1052.25 Z " fill-rule="evenodd"/>
</clipPath>
<g clip-path="url(#cp113)">
<text xml:space="preserve" transform="matrix(1 0 -0 1 0 1052.25)" font-size="18" font-family="Calibri"><tspan y="-541.8" x="696.55">)</tspan></text>
</g>
<clipPath id="cp114">
<path transform="matrix(1,0,0,-1,0,1052.25)" d="M .000011086 0 L 744 0 L 744 1052.25 L .000011086 1052.25 Z " fill-rule="evenodd"/>
</clipPath>
<g clip-path="url(#cp114)">
<text xml:space="preserve" transform="matrix(1 0 -0 1 0 1052.25)" font-size="18" font-family="Wingdings"><tspan y="-519.33" x="445.73">&#xf0a7;</tspan></text>
</g>
<clipPath id="cp115">
<path transform="matrix(1,0,0,-1,0,1052.25)" d="M .000011086 0 L 744 0 L 744 1052.25 L .000011086 1052.25 Z " fill-rule="evenodd"/>
</clipPath>
<g clip-path="url(#cp115)">
<text xml:space="preserve" transform="matrix(1 0 -0 1 0 1052.25)" font-size="18" font-family="Wingdings"><tspan y="-519.33" x="453.97"> </tspan></text>
</g>
<clipPath id="cp116">
<path transform="matrix(1,0,0,-1,0,1052.25)" d="M .000011086 0 L 744 0 L 744 1052.25 L .000011086 1052.25 Z " fill-rule="evenodd"/>
</clipPath>
<g clip-path="url(#cp116)">
<text xml:space="preserve" transform="matrix(1 0 -0 1 0 1052.25)" font-size="18" font-family="Calibri"><tspan y="-519.33" x="463.75 474.982 483.94599 490.73197 499.69596 509.46998 513.214 522.196 529.702 538.666 542.446 552.184 561.184 565.666 571.66 580.62399 585.14199 594.10598 601.64797 610.62997 620.368 626.398 635.362">Desenlace no relevante </tspan></text>
</g>
<clipPath id="cp117">
<path transform="matrix(1,0,0,-1,0,1052.25)" d="M .000011086 0 L 744 0 L 744 1052.25 L .000011086 1052.25 Z " fill-rule="evenodd"/>
</clipPath>
<g clip-path="url(#cp117)">
<text xml:space="preserve" transform="matrix(1 0 -0 1 0 1052.25)" font-size="18" font-family="Calibri"><tspan y="-519.33" x="639.4">(</tspan></text>
</g>
<clipPath id="cp118">
<path transform="matrix(1,0,0,-1,0,1052.25)" d="M .000011086 0 L 744 0 L 744 1052.25 L .000011086 1052.25 Z " fill-rule="evenodd"/>
</clipPath>
<g clip-path="url(#cp118)">
<text xml:space="preserve" transform="matrix(1 0 -0 1 0 1052.25)" font-size="18" font-family="Calibri"><tspan y="-519.33" x="644.88 654.63">n </tspan></text>
</g>
<clipPath id="cp119">
<path transform="matrix(1,0,0,-1,0,1052.25)" d="M .000011086 0 L 744 0 L 744 1052.25 L .000011086 1052.25 Z " fill-rule="evenodd"/>
</clipPath>
<g clip-path="url(#cp119)">
<text xml:space="preserve" transform="matrix(1 0 -0 1 0 1052.25)" font-size="18" font-family="Calibri"><tspan y="-519.33" x="658.4 667.42507">= </tspan></text>
</g>
<clipPath id="cp120">
<path transform="matrix(1,0,0,-1,0,1052.25)" d="M .000011086 0 L 744 0 L 744 1052.25 L .000011086 1052.25 Z " fill-rule="evenodd"/>
</clipPath>
<g clip-path="url(#cp120)">
<text xml:space="preserve" transform="matrix(1 0 -0 1 0 1052.25)" font-size="18" font-family="Calibri"><tspan y="-519.33" x="671.45">5</tspan></text>
</g>
<clipPath id="cp121">
<path transform="matrix(1,0,0,-1,0,1052.25)" d="M .000011086 0 L 744 0 L 744 1052.25 L .000011086 1052.25 Z " fill-rule="evenodd"/>
</clipPath>
<g clip-path="url(#cp121)">
<text xml:space="preserve" transform="matrix(1 0 -0 1 0 1052.25)" font-size="18" font-family="Calibri"><tspan y="-519.33" x="680.58">)</tspan></text>
</g>
<clipPath id="cp122">
<path transform="matrix(1,0,0,-1,0,1052.25)" d="M .000011086 0 L 744 0 L 744 1052.25 L .000011086 1052.25 Z " fill-rule="evenodd"/>
</clipPath>
<g clip-path="url(#cp122)">
<text xml:space="preserve" transform="matrix(1 0 -0 1 0 1052.25)" font-size="18" font-family="Wingdings"><tspan y="-496.85" x="445.73">&#xf0a7;</tspan></text>
</g>
<clipPath id="cp123">
<path transform="matrix(1,0,0,-1,0,1052.25)" d="M .000011086 0 L 744 0 L 744 1052.25 L .000011086 1052.25 Z " fill-rule="evenodd"/>
</clipPath>
<g clip-path="url(#cp123)">
<text xml:space="preserve" transform="matrix(1 0 -0 1 0 1052.25)" font-size="18" font-family="Wingdings"><tspan y="-496.85" x="453.97"> </tspan></text>
</g>
<clipPath id="cp124">
<path transform="matrix(1,0,0,-1,0,1052.25)" d="M .000011086 0 L 744 0 L 744 1052.25 L .000011086 1052.25 Z " fill-rule="evenodd"/>
</clipPath>
<g clip-path="url(#cp124)">
<text xml:space="preserve" transform="matrix(1 0 -0 1 0 1052.25)" font-size="18" font-family="Calibri"><tspan y="-496.85" x="463.75 472.75 482.488 492.226 495.97004 504.95204 512.45809 516.2021 525.9401 535.67819 539.4222 549.1602 558.1602 562.6422 568.63619 577.60018 582.11819 590.3622 598.5882 607.5702 616.5702 622.6002 631.5642">Poblaci&#x00f3;n no relevante </tspan></text>
</g>
<clipPath id="cp125">
<path transform="matrix(1,0,0,-1,0,1052.25)" d="M .000011086 0 L 744 0 L 744 1052.25 L .000011086 1052.25 Z " fill-rule="evenodd"/>
</clipPath>
<g clip-path="url(#cp125)">
<text xml:space="preserve" transform="matrix(1 0 -0 1 0 1052.25)" font-size="18" font-family="Calibri"><tspan y="-496.85" x="636.27">(</tspan></text>
</g>
<clipPath id="cp126">
<path transform="matrix(1,0,0,-1,0,1052.25)" d="M .000011086 0 L 744 0 L 744 1052.25 L .000011086 1052.25 Z " fill-rule="evenodd"/>
</clipPath>
<g clip-path="url(#cp126)">
<text xml:space="preserve" transform="matrix(1 0 -0 1 0 1052.25)" font-size="18" font-family="Calibri"><tspan y="-496.85" x="641.75 651.5">n </tspan></text>
</g>
<clipPath id="cp127">
<path transform="matrix(1,0,0,-1,0,1052.25)" d="M .000011086 0 L 744 0 L 744 1052.25 L .000011086 1052.25 Z " fill-rule="evenodd"/>
</clipPath>
<g clip-path="url(#cp127)">
<text xml:space="preserve" transform="matrix(1 0 -0 1 0 1052.25)" font-size="18" font-family="Calibri"><tspan y="-496.85" x="655.3 664.3">= </tspan></text>
</g>
<clipPath id="cp128">
<path transform="matrix(1,0,0,-1,0,1052.25)" d="M .000011086 0 L 744 0 L 744 1052.25 L .000011086 1052.25 Z " fill-rule="evenodd"/>
</clipPath>
<g clip-path="url(#cp128)">
<text xml:space="preserve" transform="matrix(1 0 -0 1 0 1052.25)" font-size="18" font-family="Calibri"><tspan y="-496.85" x="668.35">2</tspan></text>
</g>
<clipPath id="cp129">
<path transform="matrix(1,0,0,-1,0,1052.25)" d="M .000011086 0 L 744 0 L 744 1052.25 L .000011086 1052.25 Z " fill-rule="evenodd"/>
</clipPath>
<g clip-path="url(#cp129)">
<text xml:space="preserve" transform="matrix(1 0 -0 1 0 1052.25)" font-size="18" font-family="Calibri"><tspan y="-496.85" x="677.48">)</tspan></text>
</g>
<clipPath id="cp130">
<path transform="matrix(1,0,0,-1,0,1052.25)" d="M .000011086 0 L 744 0 L 744 1052.25 L .000011086 1052.25 Z " fill-rule="evenodd"/>
</clipPath>
<g clip-path="url(#cp130)">
<text xml:space="preserve" transform="matrix(1 0 -0 1 0 1052.25)" font-size="18" font-family="Wingdings"><tspan y="-474.38" x="445.73">&#xf0a7;</tspan></text>
</g>
<clipPath id="cp131">
<path transform="matrix(1,0,0,-1,0,1052.25)" d="M .000011086 0 L 744 0 L 744 1052.25 L .000011086 1052.25 Z " fill-rule="evenodd"/>
</clipPath>
<g clip-path="url(#cp131)">
<text xml:space="preserve" transform="matrix(1 0 -0 1 0 1052.25)" font-size="18" font-family="Wingdings"><tspan y="-474.38" x="453.97"> </tspan></text>
</g>
<clipPath id="cp132">
<path transform="matrix(1,0,0,-1,0,1052.25)" d="M .000011086 0 L 744 0 L 744 1052.25 L .000011086 1052.25 Z " fill-rule="evenodd"/>
</clipPath>
<g clip-path="url(#cp132)">
<text xml:space="preserve" transform="matrix(1 0 -0 1 0 1052.25)" font-size="18" font-family="Calibri"><tspan y="-474.38" x="463.75 474.982 478.726 486.21403 495.178 504.21403 513.952 517.69607 527.4341 537.1721 540.91616 549.16018 558.8982 564.89218 574.6302 584.3682 588.11227 597.09426 606.09426 615.8323">Dise&#x00f1;o no apropiado </tspan></text>
</g>
<clipPath id="cp133">
<path transform="matrix(1,0,0,-1,0,1052.25)" d="M .000011086 0 L 744 0 L 744 1052.25 L .000011086 1052.25 Z " fill-rule="evenodd"/>
</clipPath>
<g clip-path="url(#cp133)">
<text xml:space="preserve" transform="matrix(1 0 -0 1 0 1052.25)" font-size="18" font-family="Calibri"><tspan y="-474.38" x="620.22">(</tspan></text>
</g>
<clipPath id="cp134">
<path transform="matrix(1,0,0,-1,0,1052.25)" d="M .000011086 0 L 744 0 L 744 1052.25 L .000011086 1052.25 Z " fill-rule="evenodd"/>
</clipPath>
<g clip-path="url(#cp134)">
<text xml:space="preserve" transform="matrix(1 0 -0 1 0 1052.25)" font-size="18" font-family="Calibri"><tspan y="-474.38" x="625.68 635.455">n </tspan></text>
</g>
<clipPath id="cp135">
<path transform="matrix(1,0,0,-1,0,1052.25)" d="M .000011086 0 L 744 0 L 744 1052.25 L .000011086 1052.25 Z " fill-rule="evenodd"/>
</clipPath>
<g clip-path="url(#cp135)">
<text xml:space="preserve" transform="matrix(1 0 -0 1 0 1052.25)" font-size="18" font-family="Calibri"><tspan y="-474.38" x="639.23 648.23">= </tspan></text>
</g>
<clipPath id="cp136">
<path transform="matrix(1,0,0,-1,0,1052.25)" d="M .000011086 0 L 744 0 L 744 1052.25 L .000011086 1052.25 Z " fill-rule="evenodd"/>
</clipPath>
<g clip-path="url(#cp136)">
<text xml:space="preserve" transform="matrix(1 0 -0 1 0 1052.25)" font-size="18" font-family="Calibri"><tspan y="-474.38" x="652.27">5</tspan></text>
</g>
<clipPath id="cp137">
<path transform="matrix(1,0,0,-1,0,1052.25)" d="M .000011086 0 L 744 0 L 744 1052.25 L .000011086 1052.25 Z " fill-rule="evenodd"/>
</clipPath>
<g clip-path="url(#cp137)">
<text xml:space="preserve" transform="matrix(1 0 -0 1 0 1052.25)" font-size="18" font-family="Calibri"><tspan y="-474.38" x="661.4">)</tspan></text>
</g>
</g>
<g id="Layer-1" data-name="P">
<path transform="matrix(1,0,0,-1,0,1052.25)" stroke-width=".75075" stroke-linecap="round" stroke-linejoin="round" fill="none" stroke="#000000" d="M 365.03 518.78 L 427.11 518.78 "/>
</g>
<g id="Layer-1" data-name="P">
<path transform="matrix(1,0,0,-1,0,1052.25)" d="M 242.04 898.88 L 459.88 898.88 L 459.88 955.573 L 242.04 955.573 Z " fill="#ffffff" fill-rule="evenodd"/>
<path transform="matrix(1,0,0,-1,0,1052.25)" stroke-width=".75075" stroke-linecap="round" stroke-linejoin="round" fill="none" stroke="#000000" d="M 242.04 898.88 L 459.88 898.88 L 459.88 955.573 L 242.04 955.573 Z "/>
<clipPath id="cp138">
<path transform="matrix(1,0,0,-1,0,1052.25)" d="M .000011086 0 L 744 0 L 744 1052.25 L .000011086 1052.25 Z " fill-rule="evenodd"/>
</clipPath>
<g clip-path="url(#cp138)">
<text xml:space="preserve" transform="matrix(1 0 -0 1 0 1052.25)" font-size="18" font-family="Calibri"><tspan y="-932.53" x="260.23 269.212 275.962 281.992 291.712 300.712 305.19404 314.95 321.7 325.444 329.92604 338.92604 347.89 357.68205 363.71205 368.15806 373.41404 377.15806 385.38407 393.62809 403.3841 412.3841 419.8721 423.6161 432.58009 442.3721">Estudios identificados en </tspan></text>
</g>
<clipPath id="cp139">
<path transform="matrix(1,0,0,-1,0,1052.25)" d="M .000011086 0 L 744 0 L 744 1052.25 L .000011086 1052.25 Z " fill-rule="evenodd"/>
</clipPath>
<g clip-path="url(#cp139)">
<text xml:space="preserve" transform="matrix(1 0 -0 1 0 1052.25)" font-size="18.025" font-family="Calibri"><tspan y="-910.92" x="248.43 259.71366 269.46519 278.4957 287.5082 291.27543 300.25187 304.81217 315.32075 322.83717 331.11064 340.86216 349.8386 364.16847 367.93568 376.19114 385.22166">Google Acad&#x00e9;mico </tspan></text>
</g>
<clipPath id="cp140">
<path transform="matrix(1,0,0,-1,0,1052.25)" d="M .000011086 0 L 744 0 L 744 1052.25 L .000011086 1052.25 Z " fill-rule="evenodd"/>
</clipPath>
<g clip-path="url(#cp140)">
<text xml:space="preserve" transform="matrix(1 0 -0 1 0 1052.25)" font-size="18.025" font-family="Calibri"><tspan y="-910.92" x="389.3">(</tspan></text>
</g>
<clipPath id="cp141">
<path transform="matrix(1,0,0,-1,0,1052.25)" d="M .000011086 0 L 744 0 L 744 1052.25 L .000011086 1052.25 Z " fill-rule="evenodd"/>
</clipPath>
<g clip-path="url(#cp141)">
<text xml:space="preserve" transform="matrix(1 0 -0 1 0 1052.25)" font-size="18.025" font-family="Calibri"><tspan y="-910.92" x="394.75 404.52513">n </tspan></text>
</g>
<clipPath id="cp142">
<path transform="matrix(1,0,0,-1,0,1052.25)" d="M .000011086 0 L 744 0 L 744 1052.25 L .000011086 1052.25 Z " fill-rule="evenodd"/>
</clipPath>
<g clip-path="url(#cp142)">
<text xml:space="preserve" transform="matrix(1 0 -0 1 0 1052.25)" font-size="18.025" font-family="Calibri"><tspan y="-910.92" x="408.3 417.30006">= </tspan></text>
</g>
<clipPath id="cp143">
<path transform="matrix(1,0,0,-1,0,1052.25)" d="M .000011086 0 L 744 0 L 744 1052.25 L .000011086 1052.25 Z " fill-rule="evenodd"/>
</clipPath>
<g clip-path="url(#cp143)">
<text xml:space="preserve" transform="matrix(1 0 -0 1 0 1052.25)" font-size="18.025" font-family="Calibri"><tspan y="-910.92" x="421.35 430.34968 439.34934">119</tspan></text>
</g>
<clipPath id="cp144">
<path transform="matrix(1,0,0,-1,0,1052.25)" d="M .000011086 0 L 744 0 L 744 1052.25 L .000011086 1052.25 Z " fill-rule="evenodd"/>
</clipPath>
<g clip-path="url(#cp144)">
<text xml:space="preserve" transform="matrix(1 0 -0 1 0 1052.25)" font-size="18.025" font-family="Calibri"><tspan y="-910.92" x="448.75">)</tspan></text>
</g>
</g>
<g id="Layer-1" data-name="P">
<path transform="matrix(1,0,0,-1,0,1052.25)" d="M 497.23 898.88 L 675.81 898.88 L 675.81 955.573 L 497.23 955.573 Z " fill="#ffffff" fill-rule="evenodd"/>
<path transform="matrix(1,0,0,-1,0,1052.25)" stroke-width=".75075" stroke-linecap="round" stroke-linejoin="round" fill="none" stroke="#000000" d="M 497.23 898.88 L 675.81 898.88 L 675.81 955.573 L 497.23 955.573 Z "/>
<clipPath id="cp145">
<path transform="matrix(1,0,0,-1,0,1052.25)" d="M .000011086 0 L 744 0 L 744 1052.25 L .000011086 1052.25 Z " fill-rule="evenodd"/>
</clipPath>
<g clip-path="url(#cp145)">
<text xml:space="preserve" transform="matrix(1 0 -0 1 0 1052.25)" font-size="18" font-family="Calibri"><tspan y="-932.53" x="507.27 516.252 523.002 529.03207 538.7521 547.7521 552.2341 561.9901 568.7401 572.48416 576.9661 585.9661 594.9301 604.7221 610.75216 615.1982 620.45419 624.1982 632.4242 640.6682 650.42428 659.42428 666.9123">Estudios identificados </tspan></text>
</g>
<clipPath id="cp146">
<path transform="matrix(1,0,0,-1,0,1052.25)" d="M .000011086 0 L 744 0 L 744 1052.25 L .000011086 1052.25 Z " fill-rule="evenodd"/>
</clipPath>
<g clip-path="url(#cp146)">
<text xml:space="preserve" transform="matrix(1 0 -0 1 0 1052.25)" font-size="18.025" font-family="Calibri"><tspan y="-910.92" x="526.5 535.47647 545.22799 548.9772 556.4756 561.0179 568.4802 578.97079 588.7042 596.9777">en LILACS </tspan></text>
</g>
<clipPath id="cp147">
<path transform="matrix(1,0,0,-1,0,1052.25)" d="M .000011086 0 L 744 0 L 744 1052.25 L .000011086 1052.25 Z " fill-rule="evenodd"/>
</clipPath>
<g clip-path="url(#cp147)">
<text xml:space="preserve" transform="matrix(1 0 -0 1 0 1052.25)" font-size="18.025" font-family="Calibri"><tspan y="-910.92" x="601.08">(</tspan></text>
</g>
<clipPath id="cp148">
<path transform="matrix(1,0,0,-1,0,1052.25)" d="M .000011086 0 L 744 0 L 744 1052.25 L .000011086 1052.25 Z " fill-rule="evenodd"/>
</clipPath>
<g clip-path="url(#cp148)">
<text xml:space="preserve" transform="matrix(1 0 -0 1 0 1052.25)" font-size="18.025" font-family="Calibri"><tspan y="-910.92" x="606.55 616.3001">n </tspan></text>
</g>
<clipPath id="cp149">
<path transform="matrix(1,0,0,-1,0,1052.25)" d="M .000011086 0 L 744 0 L 744 1052.25 L .000011086 1052.25 Z " fill-rule="evenodd"/>
</clipPath>
<g clip-path="url(#cp149)">
<text xml:space="preserve" transform="matrix(1 0 -0 1 0 1052.25)" font-size="18.025" font-family="Calibri"><tspan y="-910.92" x="620.08 629.10507">= </tspan></text>
</g>
<clipPath id="cp150">
<path transform="matrix(1,0,0,-1,0,1052.25)" d="M .000011086 0 L 744 0 L 744 1052.25 L .000011086 1052.25 Z " fill-rule="evenodd"/>
</clipPath>
<g clip-path="url(#cp150)">
<text xml:space="preserve" transform="matrix(1 0 -0 1 0 1052.25)" font-size="18.025" font-family="Calibri"><tspan y="-910.92" x="633.13">7</tspan></text>
</g>
<clipPath id="cp151">
<path transform="matrix(1,0,0,-1,0,1052.25)" d="M .000011086 0 L 744 0 L 744 1052.25 L .000011086 1052.25 Z " fill-rule="evenodd"/>
</clipPath>
<g clip-path="url(#cp151)">
<text xml:space="preserve" transform="matrix(1 0 -0 1 0 1052.25)" font-size="18.025" font-family="Calibri"><tspan y="-910.92" x="642.28">)</tspan></text>
</g>
</g>
<g id="Layer-1" data-name="P">
<path transform="matrix(1,0,0,-1,0,1052.25)" stroke-width=".75075" stroke-linecap="round" stroke-linejoin="round" fill="none" stroke="#000000" d="M 106.8 898.88 L 106.8 842.69 L 248.53 842.69 L 248.53 786.5 "/>
</g>
<g id="Layer-1" data-name="P">
<path transform="matrix(1,0,0,-1,0,1052.25)" stroke-width=".75075" stroke-linecap="round" stroke-linejoin="round" fill="none" stroke="#000000" d="M 568.84 898.88 L 568.84 872.66 L 367.11 872.66 C 367.11 873.96 366.05 875.02 364.75 875.02 C 363.44 875.02 362.39 873.96 362.39 872.66 L 248.53 872.66 L 248.53 786.5 "/>
</g>
<g id="Layer-1" data-name="P">
<path transform="matrix(1,0,0,-1,0,1052.25)" d="M 129.47 325.87 L 365.03 325.87 L 365.03 382.563 L 129.47 382.563 Z " fill="#ffffff" fill-rule="evenodd"/>
<path transform="matrix(1,0,0,-1,0,1052.25)" stroke-width=".75075" stroke-linecap="round" stroke-linejoin="round" fill="none" stroke="#000000" d="M 129.47 325.87 L 365.03 325.87 L 365.03 382.563 L 129.47 382.563 Z "/>
<clipPath id="cp152">
<path transform="matrix(1,0,0,-1,0,1052.25)" d="M .000011086 0 L 744 0 L 744 1052.25 L .000011086 1052.25 Z " fill-rule="evenodd"/>
</clipPath>
<g clip-path="url(#cp152)">
<text xml:space="preserve" transform="matrix(1 0 -0 1 0 1052.25)" font-size="18" font-family="Calibri"><tspan y="-359.13" x="163.7 172.68199 179.43199 185.46199 195.16399 204.16399 208.64598 218.38399 225.13399 228.87798 233.35997 242.35997 250.58597 254.32997 264.06797 267.81199 277.55 286.55 294.038 297.78199 307.52 315.764 322.49604 330.74006">Estudios incluidos para </tspan></text>
</g>
<clipPath id="cp153">
<path transform="matrix(1,0,0,-1,0,1052.25)" d="M .000011086 0 L 744 0 L 744 1052.25 L .000011086 1052.25 Z " fill-rule="evenodd"/>
</clipPath>
<g clip-path="url(#cp153)">
<text xml:space="preserve" transform="matrix(1 0 -0 1 0 1052.25)" font-size="18.025" font-family="Calibri"><tspan y="-337.53" x="148.9 154.92035 163.8968 172.20633 176.69455 183.47196 187.96018 196.9907 206.74224 210.49144 218.00786 227.75939 236.03285 240.52108 245.0093 251.04767 259.3031 265.34147 269.81169 277.3281 286.3406">revisi&#x00f3;n cualitativa </tspan></text>
</g>
<clipPath id="cp154">
<path transform="matrix(1,0,0,-1,0,1052.25)" d="M .000011086 0 L 744 0 L 744 1052.25 L .000011086 1052.25 Z " fill-rule="evenodd"/>
</clipPath>
<g clip-path="url(#cp154)">
<text xml:space="preserve" transform="matrix(1 0 -0 1 0 1052.25)" font-size="18.025" font-family="Calibri"><tspan y="-337.53" x="290.33">(</tspan></text>
</g>
<clipPath id="cp155">
<path transform="matrix(1,0,0,-1,0,1052.25)" d="M .000011086 0 L 744 0 L 744 1052.25 L .000011086 1052.25 Z " fill-rule="evenodd"/>
</clipPath>
<g clip-path="url(#cp155)">
<text xml:space="preserve" transform="matrix(1 0 -0 1 0 1052.25)" font-size="18.025" font-family="Calibri"><tspan y="-337.53" x="295.77 305.5451">n </tspan></text>
</g>
<clipPath id="cp156">
<path transform="matrix(1,0,0,-1,0,1052.25)" d="M .000011086 0 L 744 0 L 744 1052.25 L .000011086 1052.25 Z " fill-rule="evenodd"/>
</clipPath>
<g clip-path="url(#cp156)">
<text xml:space="preserve" transform="matrix(1 0 -0 1 0 1052.25)" font-size="18.025" font-family="Calibri"><tspan y="-337.53" x="309.33 318.33006">= </tspan></text>
</g>
<clipPath id="cp157">
<path transform="matrix(1,0,0,-1,0,1052.25)" d="M .000011086 0 L 744 0 L 744 1052.25 L .000011086 1052.25 Z " fill-rule="evenodd"/>
</clipPath>
<g clip-path="url(#cp157)">
<text xml:space="preserve" transform="matrix(1 0 -0 1 0 1052.25)" font-size="18.025" font-family="Calibri"><tspan y="-337.53" x="322.38 331.37968">69</tspan></text>
</g>
<clipPath id="cp158">
<path transform="matrix(1,0,0,-1,0,1052.25)" d="M .000011086 0 L 744 0 L 744 1052.25 L .000011086 1052.25 Z " fill-rule="evenodd"/>
</clipPath>
<g clip-path="url(#cp158)">
<text xml:space="preserve" transform="matrix(1 0 -0 1 0 1052.25)" font-size="18.025" font-family="Calibri"><tspan y="-337.53" x="340.63">)</tspan></text>
</g>
</g>
<g id="Layer-1" data-name="P">
<path transform="matrix(1,0,0,-1,0,1052.25)" stroke-width=".75075" stroke-linecap="round" stroke-linejoin="round" fill="none" stroke="#000000" d="M 247.25 485.47 L 247.99 382.57 "/>
</g>
<g id="Layer-1" data-name="P">
<path transform="matrix(1,0,0,-1,0,1052.25)" d="M 398.76 325.87 L 721.58999 325.87 L 721.58999 414.503 L 398.76 414.503 Z " fill="#ffffff" fill-rule="evenodd"/>
<path transform="matrix(1,0,0,-1,0,1052.25)" stroke-width=".75075" stroke-linecap="round" stroke-linejoin="round" fill="none" stroke="#000000" d="M 398.76 325.87 L 721.58999 325.87 L 721.58999 414.503 L 398.76 414.503 Z "/>
<clipPath id="cp159">
<path transform="matrix(1,0,0,-1,0,1052.25)" d="M .000011086 0 L 744 0 L 744 1052.25 L .000011086 1052.25 Z " fill-rule="evenodd"/>
</clipPath>
<g clip-path="url(#cp159)">
<text xml:space="preserve" transform="matrix(1 0 -0 1 0 1052.25)" font-size="18" font-family="Calibri"><tspan y="-386.78" x="417.35 426.35 433.87403 441.39805 445.88008 454.89808 459.3801 468.3981 478.15409 485.66007">Excluidos </tspan></text>
</g>
<clipPath id="cp160">
<path transform="matrix(1,0,0,-1,0,1052.25)" d="M .000011086 0 L 744 0 L 744 1052.25 L .000011086 1052.25 Z " fill-rule="evenodd"/>
</clipPath>
<g clip-path="url(#cp160)">
<text xml:space="preserve" transform="matrix(1 0 -0 1 0 1052.25)" font-size="18" font-family="Calibri"><tspan y="-386.78" x="489.4">(</tspan></text>
</g>
<clipPath id="cp161">
<path transform="matrix(1,0,0,-1,0,1052.25)" d="M .000011086 0 L 744 0 L 744 1052.25 L .000011086 1052.25 Z " fill-rule="evenodd"/>
</clipPath>
<g clip-path="url(#cp161)">
<text xml:space="preserve" transform="matrix(1 0 -0 1 0 1052.25)" font-size="18" font-family="Calibri"><tspan y="-386.78" x="494.88 504.63">n </tspan></text>
</g>
<clipPath id="cp162">
<path transform="matrix(1,0,0,-1,0,1052.25)" d="M .000011086 0 L 744 0 L 744 1052.25 L .000011086 1052.25 Z " fill-rule="evenodd"/>
</clipPath>
<g clip-path="url(#cp162)">
<text xml:space="preserve" transform="matrix(1 0 -0 1 0 1052.25)" font-size="18" font-family="Calibri"><tspan y="-386.78" x="508.4 517.425">= </tspan></text>
</g>
<clipPath id="cp163">
<path transform="matrix(1,0,0,-1,0,1052.25)" d="M .000011086 0 L 744 0 L 744 1052.25 L .000011086 1052.25 Z " fill-rule="evenodd"/>
</clipPath>
<g clip-path="url(#cp163)">
<text xml:space="preserve" transform="matrix(1 0 -0 1 0 1052.25)" font-size="18" font-family="Calibri"><tspan y="-386.78" x="521.45 530.47506">27</tspan></text>
</g>
<clipPath id="cp164">
<path transform="matrix(1,0,0,-1,0,1052.25)" d="M .000011086 0 L 744 0 L 744 1052.25 L .000011086 1052.25 Z " fill-rule="evenodd"/>
</clipPath>
<g clip-path="url(#cp164)">
<text xml:space="preserve" transform="matrix(1 0 -0 1 0 1052.25)" font-size="18" font-family="Calibri"><tspan y="-386.78" x="539.72 544.97">):</tspan></text>
</g>
<clipPath id="cp165">
<path transform="matrix(1,0,0,-1,0,1052.25)" d="M .000011086 0 L 744 0 L 744 1052.25 L .000011086 1052.25 Z " fill-rule="evenodd"/>
</clipPath>
<g clip-path="url(#cp165)">
<text xml:space="preserve" transform="matrix(1 0 -0 1 0 1052.25)" font-size="18.025" font-family="Wingdings"><tspan y="-364.53" x="417.35">&#xf0a7;</tspan></text>
</g>
<clipPath id="cp166">
<path transform="matrix(1,0,0,-1,0,1052.25)" d="M .000011086 0 L 744 0 L 744 1052.25 L .000011086 1052.25 Z " fill-rule="evenodd"/>
</clipPath>
<g clip-path="url(#cp166)">
<text xml:space="preserve" transform="matrix(1 0 -0 1 0 1052.25)" font-size="18.025" font-family="Wingdings"><tspan y="-364.53" x="425.6"> </tspan></text>
</g>
<clipPath id="cp167">
<path transform="matrix(1,0,0,-1,0,1052.25)" d="M .000011086 0 L 744 0 L 744 1052.25 L .000011086 1052.25 Z " fill-rule="evenodd"/>
</clipPath>
<g clip-path="url(#cp167)">
<text xml:space="preserve" transform="matrix(1 0 -0 1 0 1052.25)" font-size="18.025" font-family="Calibri"><tspan y="-364.53" x="435.38 444.35646 453.3329 459.3532 468.32966 477.32414 481.81236 490.06779 494.556 503.55049 512.5269 517.0332 523.0355 532.01199 540.9884 555.3183 565.0518 568.801 577.77749 584.5188 594.25228 598.00149 604.0038 612.9802 622.73178 631.7082 635.4574">Terapia de reemplazo renal </tspan></text>
</g>
<clipPath id="cp168">
<path transform="matrix(1,0,0,-1,0,1052.25)" d="M .000011086 0 L 744 0 L 744 1052.25 L .000011086 1052.25 Z " fill-rule="evenodd"/>
</clipPath>
<g clip-path="url(#cp168)">
<text xml:space="preserve" transform="matrix(1 0 -0 1 0 1052.25)" font-size="18.025" font-family="Calibri"><tspan y="-364.53" x="639.92">(</tspan></text>
</g>
<clipPath id="cp169">
<path transform="matrix(1,0,0,-1,0,1052.25)" d="M .000011086 0 L 744 0 L 744 1052.25 L .000011086 1052.25 Z " fill-rule="evenodd"/>
</clipPath>
<g clip-path="url(#cp169)">
<text xml:space="preserve" transform="matrix(1 0 -0 1 0 1052.25)" font-size="18.025" font-family="Calibri"><tspan y="-364.53" x="645.4 655.15017">n </tspan></text>
</g>
<clipPath id="cp170">
<path transform="matrix(1,0,0,-1,0,1052.25)" d="M .000011086 0 L 744 0 L 744 1052.25 L .000011086 1052.25 Z " fill-rule="evenodd"/>
</clipPath>
<g clip-path="url(#cp170)">
<text xml:space="preserve" transform="matrix(1 0 -0 1 0 1052.25)" font-size="18.025" font-family="Calibri"><tspan y="-364.53" x="658.92 667.945">= </tspan></text>
</g>
<clipPath id="cp171">
<path transform="matrix(1,0,0,-1,0,1052.25)" d="M .000011086 0 L 744 0 L 744 1052.25 L .000011086 1052.25 Z " fill-rule="evenodd"/>
</clipPath>
<g clip-path="url(#cp171)">
<text xml:space="preserve" transform="matrix(1 0 -0 1 0 1052.25)" font-size="18.025" font-family="Calibri"><tspan y="-364.53" x="671.97 680.96969">14</tspan></text>
</g>
<clipPath id="cp172">
<path transform="matrix(1,0,0,-1,0,1052.25)" d="M .000011086 0 L 744 0 L 744 1052.25 L .000011086 1052.25 Z " fill-rule="evenodd"/>
</clipPath>
<g clip-path="url(#cp172)">
<text xml:space="preserve" transform="matrix(1 0 -0 1 0 1052.25)" font-size="18.025" font-family="Calibri"><tspan y="-364.53" x="690.25">)</tspan></text>
</g>
<clipPath id="cp173">
<path transform="matrix(1,0,0,-1,0,1052.25)" d="M .000011086 0 L 744 0 L 744 1052.25 L .000011086 1052.25 Z " fill-rule="evenodd"/>
</clipPath>
<g clip-path="url(#cp173)">
<text xml:space="preserve" transform="matrix(1 0 -0 1 0 1052.25)" font-size="18.025" font-family="Wingdings"><tspan y="-342.05" x="417.35">&#xf0a7;</tspan></text>
</g>
<clipPath id="cp174">
<path transform="matrix(1,0,0,-1,0,1052.25)" d="M .000011086 0 L 744 0 L 744 1052.25 L .000011086 1052.25 Z " fill-rule="evenodd"/>
</clipPath>
<g clip-path="url(#cp174)">
<text xml:space="preserve" transform="matrix(1 0 -0 1 0 1052.25)" font-size="18.025" font-family="Wingdings"><tspan y="-342.05" x="425.6"> </tspan></text>
</g>
<clipPath id="cp175">
<path transform="matrix(1,0,0,-1,0,1052.25)" d="M .000011086 0 L 744 0 L 744 1052.25 L .000011086 1052.25 Z " fill-rule="evenodd"/>
</clipPath>
<g clip-path="url(#cp175)">
<text xml:space="preserve" transform="matrix(1 0 -0 1 0 1052.25)" font-size="18.025" font-family="Calibri"><tspan y="-342.05" x="435.38 444.35646 451.0978 457.13618 466.83363 475.8281 480.3163 490.0498 496.79118 500.54035 510.27388 519.2503 529.00186 532.75106 541.7275 547.76589 553.7321 557.4813 566.45779">Estudios pediatr&#x00ed;a </tspan></text>
</g>
<clipPath id="cp176">
<path transform="matrix(1,0,0,-1,0,1052.25)" d="M .000011086 0 L 744 0 L 744 1052.25 L .000011086 1052.25 Z " fill-rule="evenodd"/>
</clipPath>
<g clip-path="url(#cp176)">
<text xml:space="preserve" transform="matrix(1 0 -0 1 0 1052.25)" font-size="18.025" font-family="Calibri"><tspan y="-342.05" x="570.78">(</tspan></text>
</g>
<clipPath id="cp177">
<path transform="matrix(1,0,0,-1,0,1052.25)" d="M .000011086 0 L 744 0 L 744 1052.25 L .000011086 1052.25 Z " fill-rule="evenodd"/>
</clipPath>
<g clip-path="url(#cp177)">
<text xml:space="preserve" transform="matrix(1 0 -0 1 0 1052.25)" font-size="18.025" font-family="Calibri"><tspan y="-342.05" x="576.23 586.0051">n </tspan></text>
</g>
<clipPath id="cp178">
<path transform="matrix(1,0,0,-1,0,1052.25)" d="M .000011086 0 L 744 0 L 744 1052.25 L .000011086 1052.25 Z " fill-rule="evenodd"/>
</clipPath>
<g clip-path="url(#cp178)">
<text xml:space="preserve" transform="matrix(1 0 -0 1 0 1052.25)" font-size="18.025" font-family="Calibri"><tspan y="-342.05" x="589.78 598.7801">= </tspan></text>
</g>
<clipPath id="cp179">
<path transform="matrix(1,0,0,-1,0,1052.25)" d="M .000011086 0 L 744 0 L 744 1052.25 L .000011086 1052.25 Z " fill-rule="evenodd"/>
</clipPath>
<g clip-path="url(#cp179)">
<text xml:space="preserve" transform="matrix(1 0 -0 1 0 1052.25)" font-size="18.025" font-family="Calibri"><tspan y="-342.05" x="602.82 611.8197">13</tspan></text>
</g>
<clipPath id="cp180">
<path transform="matrix(1,0,0,-1,0,1052.25)" d="M .000011086 0 L 744 0 L 744 1052.25 L .000011086 1052.25 Z " fill-rule="evenodd"/>
</clipPath>
<g clip-path="url(#cp180)">
<text xml:space="preserve" transform="matrix(1 0 -0 1 0 1052.25)" font-size="18.025" font-family="Calibri"><tspan y="-342.05" x="621.07">)</tspan></text>
</g>
</g>
<g id="Layer-1" data-name="P">
<path transform="matrix(1,0,0,-1,0,1052.25)" stroke-width=".75075" stroke-linecap="round" stroke-linejoin="round" fill="none" stroke="#000000" d="M 247.25 485.47 L 247.25 448.14 L 566.01 448.14 L 566.01 414.51 "/>
</g>
<g id="Layer-1" data-name="P">
<path transform="matrix(1,0,0,-1,0,1052.25)" d="M 129.47 113.27 L 365.03 113.27 L 365.03 169.963 L 129.47 169.963 Z " fill="#ffffff" fill-rule="evenodd"/>
<path transform="matrix(1,0,0,-1,0,1052.25)" stroke-width=".75075" stroke-linecap="round" stroke-linejoin="round" fill="none" stroke="#000000" d="M 129.47 113.27 L 365.03 113.27 L 365.03 169.963 L 129.47 169.963 Z "/>
<clipPath id="cp181">
<path transform="matrix(1,0,0,-1,0,1052.25)" d="M .000011086 0 L 744 0 L 744 1052.25 L .000011086 1052.25 Z " fill-rule="evenodd"/>
</clipPath>
<g clip-path="url(#cp181)">
<text xml:space="preserve" transform="matrix(1 0 -0 1 0 1052.25)" font-size="18" font-family="Calibri"><tspan y="-146.38" x="145.4 154.38199 161.13199 167.16199 176.86399 185.86399 190.34598 200.08397 206.83397 210.57796 220.31597 229.31597 233.79796 241.30396 250.30396 260.04197 263.78596 273.52397 282.50596 288.49998 296.744 311.71998 320.68397 326.71397 332.72599 342.464 349.214">Estudios PK con par&#x00e1;metros </tspan></text>
</g>
<clipPath id="cp182">
<path transform="matrix(1,0,0,-1,0,1052.25)" d="M .000011086 0 L 744 0 L 744 1052.25 L .000011086 1052.25 Z " fill-rule="evenodd"/>
</clipPath>
<g clip-path="url(#cp182)">
<text xml:space="preserve" transform="matrix(1 0 -0 1 0 1052.25)" font-size="18.025" font-family="Calibri"><tspan y="-124.77" x="176.98 183.00035 191.9768 201.7824 211.53392 217.55428 223.59265 231.8481 241.59963 251.35115 258.12855">reportados </tspan></text>
</g>
<clipPath id="cp183">
<path transform="matrix(1,0,0,-1,0,1052.25)" d="M .000011086 0 L 744 0 L 744 1052.25 L .000011086 1052.25 Z " fill-rule="evenodd"/>
</clipPath>
<g clip-path="url(#cp183)">
<text xml:space="preserve" transform="matrix(1 0 -0 1 0 1052.25)" font-size="18.025" font-family="Calibri"><tspan y="-124.77" x="262.25">(</tspan></text>
</g>
<clipPath id="cp184">
<path transform="matrix(1,0,0,-1,0,1052.25)" d="M .000011086 0 L 744 0 L 744 1052.25 L .000011086 1052.25 Z " fill-rule="evenodd"/>
</clipPath>
<g clip-path="url(#cp184)">
<text xml:space="preserve" transform="matrix(1 0 -0 1 0 1052.25)" font-size="18.025" font-family="Calibri"><tspan y="-124.77" x="267.7 277.45014">n </tspan></text>
</g>
<clipPath id="cp185">
<path transform="matrix(1,0,0,-1,0,1052.25)" d="M .000011086 0 L 744 0 L 744 1052.25 L .000011086 1052.25 Z " fill-rule="evenodd"/>
</clipPath>
<g clip-path="url(#cp185)">
<text xml:space="preserve" transform="matrix(1 0 -0 1 0 1052.25)" font-size="18.025" font-family="Calibri"><tspan y="-124.77" x="281.25 290.25007">= </tspan></text>
</g>
<clipPath id="cp186">
<path transform="matrix(1,0,0,-1,0,1052.25)" d="M .000011086 0 L 744 0 L 744 1052.25 L .000011086 1052.25 Z " fill-rule="evenodd"/>
</clipPath>
<g clip-path="url(#cp186)">
<text xml:space="preserve" transform="matrix(1 0 -0 1 0 1052.25)" font-size="18.025" font-family="Calibri"><tspan y="-124.77" x="294.3 303.29966">49</tspan></text>
</g>
<clipPath id="cp187">
<path transform="matrix(1,0,0,-1,0,1052.25)" d="M .000011086 0 L 744 0 L 744 1052.25 L .000011086 1052.25 Z " fill-rule="evenodd"/>
</clipPath>
<g clip-path="url(#cp187)">
<text xml:space="preserve" transform="matrix(1 0 -0 1 0 1052.25)" font-size="18.025" font-family="Calibri"><tspan y="-124.77" x="312.55">)</tspan></text>
</g>
</g>
<g id="Layer-1" data-name="P">
<path transform="matrix(1,0,0,-1,0,1052.25)" d="M 398.76 175.64 L 634.32 175.64 L 634.32 232.33301 L 398.76 232.33301 Z " fill="#ffffff" fill-rule="evenodd"/>
<path transform="matrix(1,0,0,-1,0,1052.25)" stroke-width=".75075" stroke-linecap="round" stroke-linejoin="round" fill="none" stroke="#000000" d="M 398.76 175.64 L 634.32 175.64 L 634.32 232.33301 L 398.76 232.33301 Z "/>
<clipPath id="cp188">
<path transform="matrix(1,0,0,-1,0,1052.25)" d="M .000011086 0 L 744 0 L 744 1052.25 L .000011086 1052.25 Z " fill-rule="evenodd"/>
</clipPath>
<g clip-path="url(#cp188)">
<text xml:space="preserve" transform="matrix(1 0 -0 1 0 1052.25)" font-size="18" font-family="Calibri"><tspan y="-208.78" x="409.48 418.462 425.212 431.242 440.962 449.962 454.44404 464.2 470.95 474.694 484.45 493.45 497.932 504.682 514.43807 523.43807 530.17007 539.13406 542.914 552.67007 556.41409 563.9021 572.9021 582.65817 589.40817 593.89016 601.3962 605.1402 614.89627 624.6523">Estudios PK sobre disposici&#x00f3;n </tspan></text>
</g>
<clipPath id="cp189">
<path transform="matrix(1,0,0,-1,0,1052.25)" d="M .000011086 0 L 744 0 L 744 1052.25 L .000011086 1052.25 Z " fill-rule="evenodd"/>
</clipPath>
<g clip-path="url(#cp189)">
<text xml:space="preserve" transform="matrix(1 0 -0 1 0 1052.25)" font-size="18.025" font-family="Calibri"><tspan y="-187.17" x="424.67 434.40354 443.37998 447.1472 455.42066 464.3791 473.37358 477.8618 486.11723 495.85075 500.33897 506.37733 515.35379 519.08499 523.5732 532.5677 542.30117 549.04257">de FEP en tejidos </tspan></text>
</g>
<clipPath id="cp190">
<path transform="matrix(1,0,0,-1,0,1052.25)" d="M .000011086 0 L 744 0 L 744 1052.25 L .000011086 1052.25 Z " fill-rule="evenodd"/>
</clipPath>
<g clip-path="url(#cp190)">
<text xml:space="preserve" transform="matrix(1 0 -0 1 0 1052.25)" font-size="18.025" font-family="Calibri"><tspan y="-187.17" x="553.67">(</tspan></text>
</g>
<clipPath id="cp191">
<path transform="matrix(1,0,0,-1,0,1052.25)" d="M .000011086 0 L 744 0 L 744 1052.25 L .000011086 1052.25 Z " fill-rule="evenodd"/>
</clipPath>
<g clip-path="url(#cp191)">
<text xml:space="preserve" transform="matrix(1 0 -0 1 0 1052.25)" font-size="18.025" font-family="Calibri"><tspan y="-187.17" x="559.15 568.90017">n </tspan></text>
</g>
<clipPath id="cp192">
<path transform="matrix(1,0,0,-1,0,1052.25)" d="M .000011086 0 L 744 0 L 744 1052.25 L .000011086 1052.25 Z " fill-rule="evenodd"/>
</clipPath>
<g clip-path="url(#cp192)">
<text xml:space="preserve" transform="matrix(1 0 -0 1 0 1052.25)" font-size="18.025" font-family="Calibri"><tspan y="-187.17" x="572.67 581.695">= </tspan></text>
</g>
<clipPath id="cp193">
<path transform="matrix(1,0,0,-1,0,1052.25)" d="M .000011086 0 L 744 0 L 744 1052.25 L .000011086 1052.25 Z " fill-rule="evenodd"/>
</clipPath>
<g clip-path="url(#cp193)">
<text xml:space="preserve" transform="matrix(1 0 -0 1 0 1052.25)" font-size="18.025" font-family="Calibri"><tspan y="-187.17" x="585.73 594.7297">20</tspan></text>
</g>
<clipPath id="cp194">
<path transform="matrix(1,0,0,-1,0,1052.25)" d="M .000011086 0 L 744 0 L 744 1052.25 L .000011086 1052.25 Z " fill-rule="evenodd"/>
</clipPath>
<g clip-path="url(#cp194)">
<text xml:space="preserve" transform="matrix(1 0 -0 1 0 1052.25)" font-size="18.025" font-family="Calibri"><tspan y="-187.17" x="604">)</tspan></text>
</g>
</g>
<g id="Layer-1" data-name="P">
<path transform="matrix(1,0,0,-1,0,1052.25)" stroke-width=".75075" stroke-linecap="round" stroke-linejoin="round" fill="none" stroke="#000000" d="M 248.32 325.87 L 248.32 269.75 L 516.54 269.75 L 516.54 232.33 "/>
</g>
<g id="Layer-1" data-name="P">
<path transform="matrix(1,0,0,-1,0,1052.25)" stroke-width=".75075" stroke-linecap="round" stroke-linejoin="round" fill="none" stroke="#000000" d="M 248.32 325.87 L 248.32 169.97 "/>
</g>
<g id="Layer-1" data-name="P">
<path transform="matrix(1,0,0,-1,0,1052.25)" stroke-width=".75075" stroke-linecap="round" stroke-linejoin="round" fill="none" stroke="#000000" d="M 364.75 898.88 L 364.75 842.69 L 248.53 842.69 L 248.53 786.5 "/>
</g>
</g>
</g>
</svg>
