<?xml version="1.0" encoding="UTF-8" standalone="no"?>
<!DOCTYPE svg PUBLIC "-//W3C//DTD SVG 1.1//EN" "http://www.w3.org/Graphics/SVG/1.1/DTD/svg11.dtd">
<svg xmlns="http://www.w3.org/2000/svg" xmlns:xlink="http://www.w3.org/1999/xlink" version="1.1" width="431.959pt" height="298.672pt" viewBox="0 0 431.959 298.672">
<g enable-background="new">
<path transform="matrix(1,0,0,-1,145.673,21.458985)" d="M -24.00717 -21.2601 L 24.00717 -21.2601 L 24.00717 21.2601 L -24.00717 21.2601 Z " fill="#ffffff"/>
<path transform="matrix(1,0,0,-1,145.673,21.458985)" stroke-width=".3985" stroke-linecap="butt" stroke-miterlimit="10" stroke-linejoin="miter" fill="none" stroke="#222222" d="M -24.00717 -21.2601 L 24.00717 -21.2601 L 24.00717 21.2601 L -24.00717 21.2601 Z "/>
<text xml:space="preserve" transform="matrix(1 0 -0 1 0 298.67198)" font-size="12" font-family="CMR10"><tspan y="-273.753" x="124.987 132.45896 137.99816 143.53736 147.44269 151.34803 154.11763 158.02297 161.94823">Aburrirse</tspan></text>
<path transform="matrix(1,0,0,-1,145.673,21.458985)" d="M 26.7832 -119.30885 C 26.7832 -104.51671 14.79214 -92.52565 0 -92.52565 C -14.79214 -92.52565 -26.7832 -104.51671 -26.7832 -119.30885 C -26.7832 -134.10102 -14.79214 -146.09207 0 -146.09207 C 14.79214 -146.09207 26.7832 -134.10102 26.7832 -119.30885 Z M 0 -119.30885 " fill="#ffffff"/>
<path transform="matrix(1,0,0,-1,145.673,21.458985)" stroke-width=".3985" stroke-linecap="butt" stroke-miterlimit="10" stroke-linejoin="miter" fill="none" stroke="#222222" d="M 26.7832 -119.30885 C 26.7832 -104.51671 14.79214 -92.52565 0 -92.52565 C -14.79214 -92.52565 -26.7832 -104.51671 -26.7832 -119.30885 C -26.7832 -134.10102 -14.79214 -146.09207 0 -146.09207 C 14.79214 -146.09207 26.7832 -134.10102 26.7832 -119.30885 Z M 0 -119.30885 "/>
<text xml:space="preserve" transform="matrix(1 0 -0 1 0 298.672)" font-size="12" font-family="CMR10"><tspan y="-161.448" x="125.872 133.34395 138.32524 142.74864 147.17205 154.39493 159.93413">Hacer un</tspan><tspan y="-149.492" x="127.256008 132.79521 136.70055 141.4029 146.3842 150.8076 155.231 159.10646">proyecto</tspan></text>
<path transform="matrix(1,0,0,-1,145.673,21.458985)" d="M -98.04875 -119.30885 C -98.04875 -106.21216 -108.66544 -95.59547 -121.76215 -95.59547 C -134.85884 -95.59547 -145.47553 -106.21216 -145.47553 -119.30885 C -145.47553 -132.40557 -134.85884 -143.02225 -121.76215 -143.02225 C -108.66544 -143.02225 -98.04875 -132.40557 -98.04875 -119.30885 Z M -121.76215 -119.30885 " fill="#ffffff"/>
<path transform="matrix(1,0,0,-1,145.673,21.458985)" stroke-width=".3985" stroke-linecap="butt" stroke-miterlimit="10" stroke-linejoin="miter" fill="none" stroke="#222222" d="M -98.04875 -119.30885 C -98.04875 -106.21216 -108.66544 -95.59547 -121.76215 -95.59547 C -134.85884 -95.59547 -145.47553 -106.21216 -145.47553 -119.30885 C -145.47553 -132.40557 -134.85884 -143.02225 -121.76215 -143.02225 C -108.66544 -143.02225 -98.04875 -132.40557 -98.04875 -119.30885 Z M -121.76215 -119.30885 "/>
<text xml:space="preserve" transform="matrix(1 0 -0 1 .000006198883 298.672)" font-size="12" font-family="CMR10"><tspan y="-160.479" x="7.225 13.451625 17.87502 22.298415 29.521302 35.06051">Leer un</tspan><tspan y="-148.524" x="13.936 16.705603 19.475207 25.014412 28.91975">libro</tspan></text>
<path transform="matrix(1,0,0,-1,145.673,21.458985)" d="M 151.21482 -119.30885 C 151.21482 -104.62727 139.31337 -92.72583 124.63179 -92.72583 C 109.9502 -92.72583 98.04875 -104.62727 98.04875 -119.30885 C 98.04875 -133.99045 109.9502 -145.89189 124.63179 -145.89189 C 139.31337 -145.89189 151.21482 -133.99045 151.21482 -119.30885 Z M 124.63179 -119.30885 " fill="#ffffff"/>
<path transform="matrix(1,0,0,-1,145.673,21.458985)" stroke-width=".3985" stroke-linecap="butt" stroke-miterlimit="10" stroke-linejoin="miter" fill="none" stroke="#222222" d="M 151.21482 -119.30885 C 151.21482 -104.62727 139.31337 -92.72583 124.63179 -92.72583 C 109.9502 -92.72583 98.04875 -104.62727 98.04875 -119.30885 C 98.04875 -133.99045 109.9502 -145.89189 124.63179 -145.89189 C 139.31337 -145.89189 151.21482 -133.99045 151.21482 -119.30885 Z M 124.63179 -119.30885 "/>
<text xml:space="preserve" transform="matrix(1 0 -0 1 0 298.672)" font-size="12" font-family="CMR10"><tspan y="-161.392" x="251.955 258.73954 264.27876 269.81797 272.58757 275.35716 279.78056 284.76185">Publicar</tspan><tspan y="-149.437" x="250.779 256.3182 265.17497 270.71418 275.69548 281.51365 285.93705">unpaper</tspan></text>
<path transform="matrix(1,0,0,-1,145.673,21.458985)" d="M 286.09034 -119.30885 C 286.09034 -101.74324 271.85096 -87.50389 254.28534 -87.50389 C 236.71973 -87.50389 222.48036 -101.74324 222.48036 -119.30885 C 222.48036 -136.87447 236.71973 -151.11383 254.28534 -151.11383 C 271.85096 -151.11383 286.09034 -136.87447 286.09034 -119.30885 Z M 254.28534 -119.30885 " fill="#ffffff"/>
<path transform="matrix(1,0,0,-1,145.673,21.458985)" stroke-width=".3985" stroke-linecap="butt" stroke-miterlimit="10" stroke-linejoin="miter" fill="none" stroke="#222222" d="M 286.09034 -119.30885 C 286.09034 -101.74324 271.85096 -87.50389 254.28534 -87.50389 C 236.71973 -87.50389 222.48036 -101.74324 222.48036 -119.30885 C 222.48036 -136.87447 236.71973 -151.11383 254.28534 -151.11383 C 271.85096 -151.11383 286.09034 -136.87447 286.09034 -119.30885 Z M 254.28534 -119.30885 "/>
<text xml:space="preserve" transform="matrix(1 0 -0 1 .000030517579 298.672)" font-size="12" font-family="CMR10"><tspan y="-160.424" x="382.23 389.98094 395.52015 399.3956 403.819 409.35823 413.78163">Obtener</tspan><tspan y="-148.469" x="374.08003 379.61924 388.47599 393.45729 398.9965 407.29536 411.71876 416.979 420.85447">unaumento</tspan></text>
<path transform="matrix(1,0,0,-1,145.673,21.458985)" d="M 29.82968 -247.1873 C 29.82968 -230.71262 16.47469 -217.35762 0 -217.35762 C -16.47469 -217.35762 -29.82968 -230.71262 -29.82968 -247.1873 C -29.82968 -263.662 -16.47469 -277.017 0 -277.017 C 16.47469 -277.017 29.82968 -263.662 29.82968 -247.1873 Z M 0 -247.1873 " fill="#ffffff"/>
<path transform="matrix(1,0,0,-1,145.673,21.458985)" stroke-width=".3985" stroke-linecap="butt" stroke-miterlimit="10" stroke-linejoin="miter" fill="none" stroke="#222222" d="M 29.82968 -247.1873 C 29.82968 -230.71262 16.47469 -217.35762 0 -217.35762 C -16.47469 -217.35762 -29.82968 -230.71262 -29.82968 -247.1873 C -29.82968 -263.662 -16.47469 -277.017 0 -277.017 C 16.47469 -277.017 29.82968 -263.662 29.82968 -247.1873 Z M 0 -247.1873 "/>
<text xml:space="preserve" transform="matrix(1 0 -0 1 0 298.67198)" font-size="12" font-family="CMR10"><tspan y="-33.571" x="126.218 131.33878 136.87798 141.85927 146.84056 154.06345 159.60265">Jugar un</tspan><tspan y="-21.616" x="122.427 127.687259 130.45687 135.99607 140.41947 145.9487 148.99726 154.53646 158.95986 163.94115">videojuego</tspan></text>
<path transform="matrix(1,0,0,-1,145.673,21.458985)" stroke-width=".79701" stroke-linecap="butt" stroke-miterlimit="10" stroke-linejoin="miter" fill="none" stroke="#000000" d="M 0 -92.3264 L 0 -25.5697 "/>
<path transform="matrix(0,-1,-1,-0,145.673,49.49375)" d="M 5.44046 0 L 1.28699 1.5706 L 2.66432 0 L 1.28699 -1.5706 Z "/>
<path transform="matrix(0,-1,-1,-0,145.673,49.49375)" stroke-width=".79701" stroke-linecap="butt" stroke-miterlimit="10" stroke-linejoin="miter" fill="none" stroke="#000000" d="M 5.44046 0 L 1.28699 1.5706 L 2.66432 0 L 1.28699 -1.5706 Z "/>
<text xml:space="preserve" transform="matrix(1 0 -0 1 0 298.672)" font-size="12" font-family="CMMI10" font-style="italic"><tspan y="-200.362" x="108.093">p</tspan></text>
<text xml:space="preserve" transform="matrix(1 0 -0 1 0 298.672)" font-size="12" font-family="CMR10"><tspan y="-200.362" x="115.873 126.3935 131.3748 134.14441">=0.4</tspan></text>
<text fill="#ff0000" xml:space="preserve" transform="matrix(1 0 -0 1 0 298.672)" font-size="12" font-family="CMMI10" font-style="italic"><tspan y="-234.827" x="155.061">r</tspan></text>
<text fill="#ff0000" xml:space="preserve" transform="matrix(1 0 -0 1 0 298.672)" font-size="12" font-family="CMR10"><tspan y="-234.827" x="162.6 173.12052">=0</tspan></text>
<path transform="matrix(1,0,0,-1,145.673,21.458985)" stroke-width=".79701" stroke-linecap="butt" stroke-miterlimit="10" stroke-linejoin="miter" fill="none" stroke="#000000" d="M 26.98245 -119.30885 C 54.61853 -119.30885 70.21342 -119.30885 93.73915 -119.30885 "/>
<path transform="matrix(1,0,0,-1,236.94707,140.76784)" d="M 5.44046 0 L 1.28699 1.5706 L 2.66432 0 L 1.28699 -1.5706 Z "/>
<path transform="matrix(1,0,0,-1,236.94707,140.76784)" stroke-width=".79701" stroke-linecap="butt" stroke-miterlimit="10" stroke-linejoin="miter" fill="none" stroke="#000000" d="M 5.44046 0 L 1.28699 1.5706 L 2.66432 0 L 1.28699 -1.5706 Z "/>
<text xml:space="preserve" transform="matrix(1 0 -0 1 0 298.672)" font-size="12" font-family="CMMI10" font-style="italic"><tspan y="-163.562" x="175.987">p</tspan></text>
<text xml:space="preserve" transform="matrix(1 0 -0 1 0 298.672)" font-size="12" font-family="CMR10"><tspan y="-163.562" x="183.767 194.2875 199.2688 202.0384">=0.4</tspan></text>
<text fill="#ff0000" xml:space="preserve" transform="matrix(1 0 -0 1 0 298.672)" font-size="12" font-family="CMMI10" font-style="italic"><tspan y="-147.766" x="209.283">r</tspan></text>
<text fill="#ff0000" xml:space="preserve" transform="matrix(1 0 -0 1 0 298.672)" font-size="12" font-family="CMR10"><tspan y="-147.766" x="216.822">=</tspan></text>
<text fill="#ff0000" xml:space="preserve" transform="matrix(1 0 -0 1 0 298.672)" font-size="12" font-family="CMSY10" font-style="italic"><tspan y="-147.766" x="227.33802">&#x2212;</tspan></text>
<text fill="#ff0000" xml:space="preserve" transform="matrix(1 0 -0 1 0 298.672)" font-size="12" font-family="CMR10"><tspan y="-147.766" x="235.087">1</tspan></text>
<path transform="matrix(1,0,0,-1,145.673,21.458985)" stroke-width=".79701" stroke-linecap="butt" stroke-miterlimit="10" stroke-linejoin="miter" fill="none" stroke="#000000" d="M 0 -146.29132 L 0 -213.04802 "/>
<path transform="matrix(0,1,1,0,145.673,232.04192)" d="M 5.44046 0 L 1.28699 1.5706 L 2.66432 0 L 1.28699 -1.5706 Z "/>
<path transform="matrix(0,1,1,0,145.673,232.04192)" stroke-width=".79701" stroke-linecap="butt" stroke-miterlimit="10" stroke-linejoin="miter" fill="none" stroke="#000000" d="M 5.44046 0 L 1.28699 1.5706 L 2.66432 0 L 1.28699 -1.5706 Z "/>
<text xml:space="preserve" transform="matrix(1 0 -0 1 0 298.672)" font-size="12" font-family="CMMI10" font-style="italic"><tspan y="-110.965" x="149.392">p</tspan></text>
<text xml:space="preserve" transform="matrix(1 0 -0 1 0 298.672)" font-size="12" font-family="CMR10"><tspan y="-110.965" x="157.172 167.6925 172.6738 175.4434">=0.2</tspan></text>
<text fill="#ff0000" xml:space="preserve" transform="matrix(1 0 -0 1 .0000076293949 298.672)" font-size="12" font-family="CMMI10" font-style="italic"><tspan y="-66.12" x="111.169">r</tspan></text>
<text fill="#ff0000" xml:space="preserve" transform="matrix(1 0 -0 1 .0000076293949 298.672)" font-size="12" font-family="CMR10"><tspan y="-66.12" x="118.708 129.2285 136.9794">=+1</tspan></text>
<path transform="matrix(1,0,0,-1,145.673,21.458985)" stroke-width=".79701" stroke-linecap="butt" stroke-miterlimit="10" stroke-linejoin="miter" fill="none" stroke="#000000" d="M 151.41407 -119.30885 L 218.17076 -119.30885 "/>
<path transform="matrix(1,0,0,-1,361.3787,140.76784)" d="M 5.44046 0 L 1.28699 1.5706 L 2.66432 0 L 1.28699 -1.5706 Z "/>
<path transform="matrix(1,0,0,-1,361.3787,140.76784)" stroke-width=".79701" stroke-linecap="butt" stroke-miterlimit="10" stroke-linejoin="miter" fill="none" stroke="#000000" d="M 5.44046 0 L 1.28699 1.5706 L 2.66432 0 L 1.28699 -1.5706 Z "/>
<text xml:space="preserve" transform="matrix(1 0 -0 1 0 298.672)" font-size="12" font-family="CMMI10" font-style="italic"><tspan y="-163.562" x="299.289">p</tspan></text>
<text xml:space="preserve" transform="matrix(1 0 -0 1 0 298.672)" font-size="12" font-family="CMR10"><tspan y="-163.562" x="307.068 317.5885 322.5698 325.3394">=0.8</tspan></text>
<text fill="#ff0000" xml:space="preserve" transform="matrix(1 0 -0 1 0 298.672)" font-size="12" font-family="CMMI10" font-style="italic"><tspan y="-147.766" x="334.842">r</tspan></text>
<text fill="#ff0000" xml:space="preserve" transform="matrix(1 0 -0 1 0 298.672)" font-size="12" font-family="CMR10"><tspan y="-147.766" x="342.381 352.90153 360.65245">=+1</tspan></text>
<path transform="matrix(1,0,0,-1,145.673,21.458985)" stroke-width=".79701" stroke-linecap="butt" stroke-miterlimit="10" stroke-linejoin="miter" fill="none" stroke="#000000" d="M 124.63179 -146.09114 C 124.63179 -200.27355 84.21133 -247.1873 34.13928 -247.1873 "/>
<path transform="matrix(-1,-0,0,1,182.27738,268.6463)" d="M 5.44046 0 L 1.28699 1.5706 L 2.66432 0 L 1.28699 -1.5706 Z "/>
<path transform="matrix(-1,-0,0,1,182.27738,268.6463)" stroke-width=".79701" stroke-linecap="butt" stroke-miterlimit="10" stroke-linejoin="miter" fill="none" stroke="#000000" d="M 5.44046 0 L 1.28699 1.5706 L 2.66432 0 L 1.28699 -1.5706 Z "/>
<text xml:space="preserve" transform="matrix(1 0 -0 1 0 298.672)" font-size="12" font-family="CMMI10" font-style="italic"><tspan y="-90.228" x="266.86">p</tspan></text>
<text xml:space="preserve" transform="matrix(1 0 -0 1 0 298.672)" font-size="12" font-family="CMR10"><tspan y="-90.228" x="274.63999 285.1605 290.14179 292.91139">=0.2</tspan></text>
<text fill="#ff0000" xml:space="preserve" transform="matrix(1 0 -0 1 0 298.67198)" font-size="12" font-family="CMMI10" font-style="italic"><tspan y="-22.397" x="197.948">r</tspan></text>
<text fill="#ff0000" xml:space="preserve" transform="matrix(1 0 -0 1 0 298.67198)" font-size="12" font-family="CMR10"><tspan y="-22.397" x="205.487 216.0075 223.7584">=+1</tspan></text>
<path transform="matrix(1,0,0,-1,145.673,21.458985)" stroke-width=".79701" stroke-linecap="butt" stroke-miterlimit="10" stroke-linejoin="miter" fill="none" stroke="#000000" d="M 254.28534 -87.30464 C 254.28534 8.77493 120.28601 0 28.31677 0 "/>
<path transform="matrix(-1,-0,0,1,176.45487,21.458985)" d="M 5.44046 0 L 1.28699 1.5706 L 2.66432 0 L 1.28699 -1.5706 Z "/>
<path transform="matrix(-1,-0,0,1,176.45487,21.458985)" stroke-width=".79701" stroke-linecap="butt" stroke-miterlimit="10" stroke-linejoin="miter" fill="none" stroke="#000000" d="M 5.44046 0 L 1.28699 1.5706 L 2.66432 0 L 1.28699 -1.5706 Z "/>
<text xml:space="preserve" transform="matrix(1 0 -0 1 0 298.672)" font-size="12" font-family="CMMI10" font-style="italic"><tspan y="-219.004" x="359.265">p</tspan></text>
<text xml:space="preserve" transform="matrix(1 0 -0 1 0 298.672)" font-size="12" font-family="CMR10"><tspan y="-219.004" x="367.044 377.5645 382.5458 385.3154">=1.0</tspan></text>
<text fill="#ff0000" xml:space="preserve" transform="matrix(1 0 -0 1 .000015258789 298.672)" font-size="12" font-family="CMMI10" font-style="italic"><tspan y="-267.263" x="191.958">r</tspan></text>
<text fill="#ff0000" xml:space="preserve" transform="matrix(1 0 -0 1 .000015258789 298.672)" font-size="12" font-family="CMR10"><tspan y="-267.263" x="199.49599 210.0165 217.7674">=+1</tspan></text>
<path transform="matrix(1,0,0,-1,145.673,21.458985)" stroke-width=".79701" stroke-linecap="butt" stroke-miterlimit="10" stroke-linejoin="miter" fill="none" stroke="#000000" d="M -30.02893 -247.1873 C -84.29828 -247.1873 -121.76215 -197.49085 -121.76215 -147.33185 "/>
<path transform="matrix(0,-1,-1,-0,23.91085,171.2559)" d="M 5.44046 0 L 1.28699 1.5706 L 2.66432 0 L 1.28699 -1.5706 Z "/>
<path transform="matrix(0,-1,-1,-0,23.91085,171.2559)" stroke-width=".79701" stroke-linecap="butt" stroke-miterlimit="10" stroke-linejoin="miter" fill="none" stroke="#000000" d="M 5.44046 0 L 1.28699 1.5706 L 2.66432 0 L 1.28699 -1.5706 Z "/>
<text xml:space="preserve" transform="matrix(1 0 -0 1 .0000038146974 298.67198)" font-size="12" font-family="CMMI10" font-style="italic"><tspan y="-36.4" x="40.837">p</tspan></text>
<text xml:space="preserve" transform="matrix(1 0 -0 1 .0000038146974 298.67198)" font-size="12" font-family="CMR10"><tspan y="-36.4" x="48.617 59.13751 64.118808 66.888408">=0.1</tspan></text>
<text fill="#ff0000" xml:space="preserve" transform="matrix(1 0 -0 1 .0000076293949 298.672)" font-size="12" font-family="CMMI10" font-style="italic"><tspan y="-111.15" x="29.347">r</tspan></text>
<text fill="#ff0000" xml:space="preserve" transform="matrix(1 0 -0 1 .0000076293949 298.672)" font-size="12" font-family="CMR10"><tspan y="-111.15" x="36.886">=</tspan></text>
<text fill="#ff0000" xml:space="preserve" transform="matrix(1 0 -0 1 .0000076293949 298.672)" font-size="12" font-family="CMSY10" font-style="italic"><tspan y="-111.15" x="47.402">&#x2212;</tspan></text>
<text fill="#ff0000" xml:space="preserve" transform="matrix(1 0 -0 1 .0000076293949 298.672)" font-size="12" font-family="CMR10"><tspan y="-111.15" x="55.151">3</tspan></text>
<path transform="matrix(1,0,0,-1,145.673,21.458985)" stroke-width=".79701" stroke-linecap="butt" stroke-miterlimit="10" stroke-linejoin="miter" fill="none" stroke="#000000" d="M -24.59781 -229.96384 C -98.05948 -178.52613 -113.88591 0 -28.31677 0 "/>
<path transform="matrix(1,0,0,-1,114.89114,21.458985)" d="M 5.44046 0 L 1.28699 1.5706 L 2.66432 0 L 1.28699 -1.5706 Z "/>
<path transform="matrix(1,0,0,-1,114.89114,21.458985)" stroke-width=".79701" stroke-linecap="butt" stroke-miterlimit="10" stroke-linejoin="miter" fill="none" stroke="#000000" d="M 5.44046 0 L 1.28699 1.5706 L 2.66432 0 L 1.28699 -1.5706 Z "/>
<text xml:space="preserve" transform="matrix(1 0 -0 1 .0000038146974 298.672)" font-size="12" font-family="CMMI10" font-style="italic"><tspan y="-69.66" x="61.578">p</tspan></text>
<text xml:space="preserve" transform="matrix(1 0 -0 1 .0000038146974 298.672)" font-size="12" font-family="CMR10"><tspan y="-69.66" x="69.358 79.8785 84.8598 87.6294">=0.9</tspan></text>
<text fill="#ff0000" xml:space="preserve" transform="matrix(1 0 -0 1 .0000076293949 298.672)" font-size="12" font-family="CMMI10" font-style="italic"><tspan y="-266.646" x="52.516">r</tspan></text>
<text fill="#ff0000" xml:space="preserve" transform="matrix(1 0 -0 1 .0000076293949 298.672)" font-size="12" font-family="CMR10"><tspan y="-266.646" x="60.055 70.5755 78.3264">=+0</tspan></text>
</g>
</svg>
